<svg width="201" height="51" viewBox="0 0 201 51" fill="none" xmlns="http://www.w3.org/2000/svg">
<path d="M6.74152e-07 37.9144C3.01828e-07 42.1733 3.45251 45.6258 7.7114 45.6258L37.9144 45.6258C42.1733 45.6258 45.6258 42.1733 45.6258 37.9144L45.6258 7.71139C45.6258 3.45251 42.1733 -3.94249e-06 37.9144 -4.31482e-06L7.7114 -6.95524e-06C3.45251 -7.32757e-06 3.6869e-06 3.4525 3.31458e-06 7.71139L6.74152e-07 37.9144Z" fill="url(#paint0_linear)"/>
<path fill-rule="evenodd" clip-rule="evenodd" d="M35.7607 6.82689C35.7607 6.00767 35.0931 5.34356 34.2695 5.34356H12.5894C11.7658 5.34356 11.0981 6.00767 11.0981 6.82689V37.9768C11.0981 38.796 11.7658 39.4601 12.5894 39.4601H34.2695C35.0931 39.4601 35.7607 38.796 35.7607 37.9768V6.82689ZM10.3047 7.22771C10.3047 7.01216 10.1202 6.83908 9.90604 6.87225C8.01001 7.16599 6.57666 8.52215 6.57666 10.1508C6.57666 11.7794 8.01 13.1356 9.90604 13.4293C10.1202 13.4625 10.3047 13.2894 10.3047 13.0738C10.3047 12.881 10.1556 12.7208 9.96435 12.6893C8.36219 12.4253 7.32227 11.2907 7.32227 10.1508C7.32227 9.0108 8.36219 7.87621 9.96435 7.61225C10.1556 7.58074 10.3047 7.42055 10.3047 7.22771ZM36.9658 7.16386C36.7173 7.01556 36.4012 7.1936 36.4012 7.48185V12.8469C36.4012 13.1352 36.7173 13.3132 36.9658 13.1649L38.457 12.2749C38.5693 12.2079 38.638 12.0872 38.638 11.9569V8.37185C38.638 8.24159 38.5693 8.12088 38.457 8.05386L36.9658 7.16386ZM36.9658 23.4805C36.7173 23.3322 36.4012 23.5102 36.4012 23.7985V29.1635C36.4012 29.4518 36.7173 29.6298 36.9658 29.4815L38.457 28.5915C38.5693 28.5245 38.638 28.4038 38.638 28.2735V24.6885C38.638 24.5582 38.5693 24.4375 38.457 24.3705L36.9658 23.4805ZM36.4012 15.6402C36.4012 15.3519 36.7173 15.1739 36.9658 15.3222L38.457 16.2122C38.5693 16.2792 38.638 16.3999 38.638 16.5302V20.1152C38.638 20.2455 38.5693 20.3662 38.457 20.4332L36.9658 21.3232C36.7173 21.4715 36.4012 21.2935 36.4012 21.0052V15.6402ZM36.9658 31.6388C36.7173 31.4905 36.4012 31.6685 36.4012 31.9568V37.3218C36.4012 37.6101 36.7173 37.7881 36.9658 37.6398L38.457 36.7498C38.5693 36.6828 38.638 36.5621 38.638 36.4318V32.8468C38.638 32.7165 38.5693 32.5958 38.457 32.5288L36.9658 31.6388ZM9.90604 23.1889C10.1202 23.1557 10.3047 23.3288 10.3047 23.5443C10.3047 23.7372 10.1556 23.8974 9.96435 23.9289C8.36219 24.1928 7.32227 25.3274 7.32227 26.4674C7.32227 27.6074 8.36219 28.742 9.96435 29.0059C10.1556 29.0374 10.3047 29.1976 10.3047 29.3905C10.3047 29.606 10.1202 29.7791 9.90604 29.7459C8.01 29.4522 6.57666 28.096 6.57666 26.4674C6.57666 24.8388 8.01001 23.4826 9.90604 23.1889ZM10.3047 15.386C10.3047 15.1705 10.1202 14.9974 9.90604 15.0306C8.01001 15.3243 6.57666 16.6805 6.57666 18.3091C6.57666 19.9377 8.01 21.2939 9.90604 21.5876C10.1202 21.6208 10.3047 21.4477 10.3047 21.2321C10.3047 21.0393 10.1556 20.8791 9.96435 20.8476C8.36219 20.5836 7.32227 19.4491 7.32227 18.3091C7.32227 17.1691 8.36219 16.0345 9.96435 15.7706C10.1556 15.739 10.3047 15.5789 10.3047 15.386ZM9.90604 31.3472C10.1202 31.314 10.3047 31.4871 10.3047 31.7026C10.3047 31.8955 10.1556 32.0557 9.96435 32.0872C8.36219 32.3511 7.32227 33.4857 7.32227 34.6257C7.32227 35.7657 8.36219 36.9003 9.96435 37.1642C10.1556 37.1957 10.3047 37.3559 10.3047 37.5488C10.3047 37.7643 10.1202 37.9374 9.90604 37.9042C8.01 37.6105 6.57666 36.2543 6.57666 34.6257C6.57666 32.9971 8.01001 31.6409 9.90604 31.3472ZM14.3865 33.6503C14.3865 32.5457 15.2819 31.6503 16.3865 31.6503H27.184C28.2886 31.6503 29.184 32.5457 29.184 33.6503V34.9939C29.184 36.0984 28.2886 36.9939 27.184 36.9939H16.3865C15.2819 36.9939 14.3865 36.0984 14.3865 34.9939V33.6503ZM15.8251 27.1288C15.0306 27.1288 14.3865 27.7729 14.3865 28.5675C14.3865 29.362 15.0306 30.0061 15.8251 30.0061H31.0337C31.8283 30.0061 32.4724 29.362 32.4724 28.5675C32.4724 27.7729 31.8283 27.1288 31.0337 27.1288H15.8251ZM14.3865 9.24847C14.3865 8.45393 15.0306 7.80982 15.8251 7.80982H31.0337C31.8283 7.80982 32.4724 8.45393 32.4724 9.24847C32.4724 10.043 31.8283 10.6871 31.0337 10.6871H15.8251C15.0306 10.6871 14.3865 10.043 14.3865 9.24847ZM15.8251 12.3313C15.0306 12.3313 14.3865 12.9754 14.3865 13.7699C14.3865 14.5645 15.0306 15.2086 15.8251 15.2086H26.1012C26.8957 15.2086 27.5399 14.5645 27.5399 13.7699C27.5399 12.9754 26.8957 12.3313 26.1012 12.3313H15.8251ZM14.3865 18.8528C14.3865 17.7482 15.2819 16.8528 16.3865 16.8528H20.6073C21.7119 16.8528 22.6073 17.7482 22.6073 18.8528V23.4847C22.6073 24.5892 21.7119 25.4847 20.6073 25.4847H16.3865C15.2819 25.4847 14.3865 24.5892 14.3865 23.4847V18.8528ZM26.2515 16.8528C25.1469 16.8528 24.2515 17.7482 24.2515 18.8528V23.4847C24.2515 24.5892 25.1469 25.4847 26.2515 25.4847H30.4724C31.5769 25.4847 32.4724 24.5892 32.4724 23.4847V18.8528C32.4724 17.7482 31.5769 16.8528 30.4724 16.8528H26.2515Z" fill="white"/>
<path d="M56.1144 34.2145C56.1144 33.8379 56.1522 33.4424 56.2278 33.0281C56.3034 32.5761 56.3412 32.1617 56.3412 31.7851C56.3412 30.9941 56.19 29.3368 55.8876 26.8132C55.623 24.2895 55.4907 21.1444 55.4907 17.3778C55.4907 16.7752 55.4907 16.116 55.4907 15.4004C55.5285 14.6471 55.6041 13.9314 55.7175 13.2534C55.8309 12.5378 55.9821 11.8786 56.1711 11.276C56.3601 10.6733 56.6247 10.1836 56.9649 9.80698C58.4013 8.451 59.8943 7.37752 61.4441 6.58654C63.0316 5.75789 64.6948 5.34356 66.4336 5.34356C67.3029 5.34356 68.1534 5.49422 68.985 5.79555C69.8544 6.05921 70.6293 6.49237 71.3097 7.09503C71.99 7.69768 72.5381 8.451 72.9539 9.35499C73.3697 10.259 73.5776 11.3513 73.5776 12.6319C73.5776 14.2139 73.2185 15.4945 72.5003 16.4739C71.8199 17.4532 71.0451 18.2065 70.1757 18.7338C71.5742 19.2235 72.6893 19.9203 73.5209 20.8243C74.3903 21.6906 75.0518 22.7264 75.5054 23.9317C75.9589 25.0994 76.2424 26.3988 76.3558 27.8301C76.507 29.2615 76.5826 30.7869 76.5826 32.4066C76.5826 33.1599 76.5448 33.9132 76.4692 34.6665C76.4314 35.3822 76.3369 36.0225 76.1857 36.5875C76.0345 37.1525 75.8078 37.6045 75.5054 37.9435C75.2408 38.2825 74.8817 38.452 74.4281 38.452C73.7099 38.452 73.2374 38.1318 73.0106 37.4915C72.8216 36.8888 72.7271 36.1543 72.7271 35.288V34.6665C72.7271 34.0262 72.7271 33.3859 72.7271 32.7456C72.7649 32.0676 72.7838 31.4084 72.7838 30.7681C72.7838 30.0148 72.7649 29.2803 72.7271 28.5646C72.6893 27.8113 72.5948 27.058 72.4436 26.3047C72.1034 25.6267 71.612 25.0429 70.9695 24.5532C70.3647 24.0635 69.6654 23.6681 68.8716 23.3667C68.1156 23.0654 67.3218 22.8582 66.4903 22.7452C65.6587 22.5946 64.8838 22.5192 64.1656 22.5192C63.9766 22.5192 63.6931 22.5569 63.3151 22.6322C62.9372 22.7076 62.5214 22.8206 62.0678 22.9712C61.6142 23.0842 61.1417 23.2161 60.6503 23.3667C60.1967 23.5174 59.7998 23.6681 59.4596 23.8187C59.4596 24.572 59.4974 25.4384 59.573 26.4177C59.6486 27.397 59.7242 28.3951 59.7998 29.4121C59.9132 30.3914 60.0266 31.3519 60.14 32.2936C60.2534 33.1975 60.3857 33.9697 60.5369 34.61C60.5369 35.4387 60.2723 36.0978 59.7431 36.5875C59.2517 37.0395 58.6847 37.2655 58.0422 37.2655C57.513 37.2655 57.0594 36.9453 56.6814 36.305C56.3034 35.6647 56.1144 34.9678 56.1144 34.2145ZM59.1761 18.3383C60.1211 18.15 61.2173 17.8863 62.4647 17.5473C63.7498 17.1707 64.9405 16.7563 66.0367 16.3044C67.1329 15.8147 68.0589 15.3062 68.8149 14.7789C69.6087 14.2516 70.0056 13.7242 70.0056 13.1969C70.0056 11.9539 69.5898 11.1253 68.7582 10.711C67.9644 10.259 67.114 10.033 66.2068 10.033C65.5264 10.033 64.7704 10.1271 63.9388 10.3155C63.145 10.5038 62.3891 10.7863 61.6709 11.163C60.9527 11.5019 60.329 11.9351 59.7998 12.4624C59.3084 12.9521 59.0627 13.4982 59.0627 14.1009C59.0627 14.4022 59.0438 14.6847 59.006 14.9484C59.006 15.212 59.006 15.4757 59.006 15.7394C59.006 16.681 59.0627 17.5473 59.1761 18.3383Z" fill="#2F80ED"/>
<path d="M83.4037 28.5646C83.7061 29.5439 84.2164 30.3161 84.9346 30.8811C85.6528 31.4461 86.4466 31.8604 87.316 32.1241C88.1853 32.3877 89.0547 32.5572 89.9241 32.6326C90.7935 32.6702 91.5495 32.6891 92.192 32.6891C92.8346 32.6891 93.4772 32.5949 94.1198 32.4066C94.7624 32.2182 95.3672 32.0111 95.9342 31.7851C96.5389 31.5591 97.087 31.3519 97.5784 31.1636C98.1076 30.9753 98.5423 30.8811 98.8825 30.8811C100.168 30.8811 100.81 31.7097 100.81 33.367C100.81 34.3464 100.357 35.0997 99.4495 35.627C98.5801 36.1543 97.5406 36.5498 96.3311 36.8135C95.1593 37.0771 93.9875 37.2278 92.8157 37.2655C91.6818 37.3408 90.8502 37.3785 90.321 37.3785C89.0358 37.3785 87.7696 37.096 86.5222 36.531C85.2748 35.966 84.1597 35.175 83.177 34.158C82.232 33.141 81.4571 31.9546 80.8523 30.5986C80.2853 29.2426 80.0018 27.7736 80.0018 26.1917C80.0018 24.007 80.2664 22.0108 80.7956 20.2028C81.3626 18.3948 82.1564 16.8317 83.177 15.5134C84.1975 14.1951 85.4638 13.1781 86.9758 12.4624C88.4877 11.7091 90.2076 11.3324 92.1353 11.3324C93.0803 11.3324 94.0631 11.5208 95.0837 11.8974C96.1043 12.2364 97.0114 12.7638 97.8052 13.4794C98.6368 14.1574 99.3172 15.0237 99.8464 16.0784C100.376 17.0953 100.64 18.2818 100.64 19.6378C100.64 20.5041 100.508 21.2386 100.243 21.8413C99.9787 22.4439 99.6196 22.8206 99.166 22.9712L83.4037 28.5646ZM83.177 24.6662C84.2353 24.3649 85.426 23.9694 86.749 23.4797C88.1097 22.9524 89.4705 22.4251 90.8313 21.8978C92.192 21.3328 93.4583 20.8054 94.6301 20.3158C95.8397 19.7885 96.8224 19.3741 97.5784 19.0728C97.087 18.0182 96.2555 17.2837 95.0837 16.8693C93.9497 16.4174 92.7212 16.1914 91.3983 16.1914C90.8691 16.1914 90.1887 16.3609 89.3571 16.6999C88.5255 17.0012 87.6751 17.4908 86.8057 18.1688C85.9741 18.8468 85.2181 19.732 84.5377 20.8243C83.8573 21.8789 83.4038 23.1596 83.177 24.6662Z" fill="#2F80ED"/>
<path d="M108.432 38.6214C108.432 39.5631 108.451 40.4106 108.489 41.1639C108.565 41.9172 108.621 42.6329 108.659 43.3109C108.735 44.0265 108.791 44.7422 108.829 45.4578C108.905 46.2111 108.943 47.0398 108.943 47.9438C108.943 48.6971 108.697 49.2433 108.205 49.5822C107.752 49.9589 107.298 50.1472 106.845 50.1472C106.315 50.1472 105.9 50.0342 105.597 49.8082C105.295 49.5822 105.068 49.2433 104.917 48.7913C104.804 48.3393 104.728 47.7743 104.69 47.0963C104.69 46.4183 104.69 45.6273 104.69 44.7233C104.69 44.4597 104.69 44.1395 104.69 43.7629C104.69 43.3862 104.69 42.8212 104.69 42.0679C104.728 41.3522 104.747 40.3729 104.747 39.1299C104.747 37.9246 104.766 36.3427 104.804 34.384C104.841 32.3877 104.879 29.9583 104.917 27.0957C104.993 24.1954 105.068 20.7301 105.144 16.6999C105.559 15.7582 106.108 14.986 106.788 14.3834C107.468 13.7431 108.187 13.2346 108.943 12.8579C109.699 12.4813 110.473 12.2176 111.267 12.0669C112.061 11.8786 112.779 11.7844 113.422 11.7844C115.387 11.7844 117.126 12.0669 118.638 12.6319C120.15 13.1592 121.416 13.8937 122.437 14.8354C123.457 15.777 124.232 16.8882 124.761 18.1688C125.291 19.4495 125.555 20.8243 125.555 22.2932C125.555 24.5532 125.272 26.606 124.705 28.4516C124.138 30.2596 123.325 31.8227 122.267 33.141C121.208 34.4217 119.923 35.4198 118.411 36.1355C116.937 36.8135 115.274 37.1525 113.422 37.1525C112.439 37.1525 111.588 37.0771 110.87 36.9265C110.152 36.8135 109.339 36.6628 108.432 36.4745V38.6214ZM108.546 31.8416C108.546 31.9169 108.678 31.9922 108.943 32.0676C109.207 32.1052 109.51 32.1429 109.85 32.1806C110.228 32.2182 110.606 32.2371 110.984 32.2371C111.362 32.2371 111.645 32.2371 111.834 32.2371C113.119 32.2371 114.367 32.0676 115.576 31.7286C116.786 31.3519 117.863 30.7869 118.808 30.0336C119.753 29.2803 120.49 28.3386 121.019 27.2087C121.586 26.041 121.87 24.6662 121.87 23.0842C121.87 20.9373 121.095 19.3365 119.545 18.2818C118.033 17.1895 115.973 16.6434 113.365 16.6434C112.949 16.6434 112.458 16.6999 111.891 16.8128C111.362 16.9258 110.832 17.0765 110.303 17.2648C109.812 17.4532 109.377 17.698 108.999 17.9993C108.659 18.263 108.489 18.5831 108.489 18.9598L108.319 25.5702C108.281 25.8715 108.281 26.3612 108.319 27.0392C108.357 27.7171 108.394 28.414 108.432 29.1296C108.47 29.9583 108.508 30.8623 108.546 31.8416Z" fill="#2F80ED"/>
<path d="M128.103 27.1522C128.103 25.3065 128.424 23.4797 129.067 21.6718C129.71 19.8261 130.598 18.1877 131.732 16.7564C132.866 15.2874 134.17 14.1197 135.644 13.2534C137.156 12.3494 138.762 11.8974 140.463 11.8974C141.749 11.8974 142.958 12.1988 144.092 12.8014C145.264 13.4041 146.266 14.1951 147.097 15.1744C147.929 16.116 148.59 17.2083 149.082 18.4513C149.573 19.6566 149.819 20.8619 149.819 22.0673C149.819 22.7076 149.781 23.3291 149.705 23.9317C149.63 24.4967 149.535 25.0805 149.422 25.6832C149.346 26.2482 149.271 26.8508 149.195 27.4912C149.119 28.1315 149.082 28.8471 149.082 29.6381C149.082 30.6928 149.233 31.4272 149.535 31.8416C149.838 32.2559 150.272 32.4631 150.839 32.4631C151.179 32.4631 151.501 32.2747 151.803 31.8981C152.143 31.5214 152.446 31.2954 152.71 31.2201C153.693 31.2201 154.185 31.9357 154.185 33.367C154.185 33.819 154.09 34.271 153.901 34.723C153.712 35.175 153.447 35.5893 153.107 35.966C152.767 36.305 152.37 36.6063 151.917 36.87C151.463 37.096 150.972 37.209 150.442 37.209C149.913 37.209 149.384 37.0583 148.855 36.757C148.363 36.4557 147.91 36.079 147.494 35.627C147.078 35.1373 146.738 34.5912 146.474 33.9885C146.209 33.3482 146.077 32.6891 146.077 32.0111C144.943 33.4424 143.657 34.7042 142.221 35.7965C140.823 36.8888 139.273 37.435 137.572 37.435C136.476 37.435 135.361 37.1713 134.227 36.644C133.13 36.1167 132.129 35.401 131.222 34.497C130.314 33.5554 129.558 32.4631 128.954 31.2201C128.387 29.9394 128.103 28.5835 128.103 27.1522ZM131.618 26.9827C131.618 27.8113 131.807 28.5646 132.185 29.2426C132.601 29.9206 133.13 30.5044 133.773 30.9941C134.453 31.4461 135.19 31.8039 135.984 32.0676C136.816 32.3312 137.629 32.4631 138.422 32.4631C140.085 32.4631 141.408 32.1052 142.391 31.3896C143.374 30.6363 144.149 29.7134 144.716 28.6211C145.283 27.4912 145.68 26.2858 145.907 25.0052C146.133 23.6869 146.341 22.4439 146.53 21.2763C146.53 20.8619 146.322 20.4099 145.907 19.9203C145.529 19.393 145.056 18.9221 144.489 18.5078C143.922 18.0558 143.298 17.6792 142.618 17.3778C141.975 17.0765 141.39 16.9258 140.86 16.9258C139.462 16.9258 138.196 17.2272 137.062 17.8298C135.928 18.4325 134.945 19.2235 134.113 20.2028C133.319 21.1444 132.696 22.2179 132.242 23.4232C131.826 24.6285 131.618 25.815 131.618 26.9827Z" fill="#2F80ED"/>
<path d="M158.876 38.6214C158.876 39.5631 158.895 40.4106 158.933 41.1639C159.009 41.9172 159.065 42.6329 159.103 43.3109C159.179 44.0265 159.235 44.7422 159.273 45.4578C159.349 46.2111 159.387 47.0398 159.387 47.9438C159.387 48.6971 159.141 49.2433 158.65 49.5822C158.196 49.9589 157.742 50.1472 157.289 50.1472C156.76 50.1472 156.344 50.0342 156.041 49.8082C155.739 49.5822 155.512 49.2433 155.361 48.7913C155.248 48.3393 155.172 47.7743 155.134 47.0963C155.134 46.4183 155.134 45.6273 155.134 44.7233C155.134 44.4597 155.134 44.1395 155.134 43.7629C155.134 43.3862 155.134 42.8212 155.134 42.0679C155.172 41.3522 155.191 40.3729 155.191 39.1299C155.191 37.9246 155.21 36.3427 155.248 34.384C155.285 32.3877 155.323 29.9583 155.361 27.0957C155.437 24.1954 155.512 20.7301 155.588 16.6999C156.004 15.7582 156.552 14.986 157.232 14.3834C157.912 13.7431 158.631 13.2346 159.387 12.8579C160.143 12.4813 160.917 12.2176 161.711 12.0669C162.505 11.8786 163.223 11.7844 163.866 11.7844C165.831 11.7844 167.57 12.0669 169.082 12.6319C170.594 13.1592 171.86 13.8937 172.881 14.8354C173.901 15.777 174.676 16.8882 175.206 18.1688C175.735 19.4495 175.999 20.8243 175.999 22.2932C175.999 24.5532 175.716 26.606 175.149 28.4516C174.582 30.2596 173.769 31.8227 172.711 33.141C171.652 34.4217 170.367 35.4198 168.855 36.1355C167.381 36.8135 165.718 37.1525 163.866 37.1525C162.883 37.1525 162.033 37.0771 161.314 36.9265C160.596 36.8135 159.784 36.6628 158.876 36.4745V38.6214ZM158.99 31.8416C158.99 31.9169 159.122 31.9922 159.387 32.0676C159.651 32.1052 159.954 32.1429 160.294 32.1806C160.672 32.2182 161.05 32.2371 161.428 32.2371C161.806 32.2371 162.089 32.2371 162.278 32.2371C163.563 32.2371 164.811 32.0676 166.02 31.7286C167.23 31.3519 168.307 30.7869 169.252 30.0336C170.197 29.2803 170.934 28.3386 171.463 27.2087C172.03 26.041 172.314 24.6662 172.314 23.0842C172.314 20.9373 171.539 19.3365 169.989 18.2818C168.477 17.1895 166.417 16.6434 163.809 16.6434C163.393 16.6434 162.902 16.6999 162.335 16.8128C161.806 16.9258 161.277 17.0765 160.747 17.2648C160.256 17.4532 159.821 17.698 159.443 17.9993C159.103 18.263 158.933 18.5831 158.933 18.9598L158.763 25.5702C158.725 25.8715 158.725 26.3612 158.763 27.0392C158.801 27.7171 158.839 28.414 158.876 29.1296C158.914 29.9583 158.952 30.8623 158.99 31.8416Z" fill="#2F80ED"/>
<path d="M183.877 38.6214C183.877 39.5631 183.896 40.4106 183.934 41.1639C184.009 41.9172 184.066 42.6329 184.104 43.3109C184.179 44.0265 184.236 44.7422 184.274 45.4578C184.349 46.2111 184.387 47.0398 184.387 47.9438C184.387 48.6971 184.142 49.2433 183.65 49.5822C183.197 49.9589 182.743 50.1472 182.289 50.1472C181.76 50.1472 181.344 50.0342 181.042 49.8082C180.74 49.5822 180.513 49.2433 180.362 48.7913C180.248 48.3393 180.173 47.7743 180.135 47.0963C180.135 46.4183 180.135 45.6273 180.135 44.7233C180.135 44.4597 180.135 44.1395 180.135 43.7629C180.135 43.3862 180.135 42.8212 180.135 42.0679C180.173 41.3522 180.192 40.3729 180.192 39.1299C180.192 37.9246 180.21 36.3427 180.248 34.384C180.286 32.3877 180.324 29.9583 180.362 27.0957C180.437 24.1954 180.513 20.7301 180.588 16.6999C181.004 15.7582 181.552 14.986 182.233 14.3834C182.913 13.7431 183.631 13.2346 184.387 12.8579C185.143 12.4813 185.918 12.2176 186.712 12.0669C187.506 11.8786 188.224 11.7844 188.866 11.7844C190.832 11.7844 192.571 12.0669 194.083 12.6319C195.595 13.1592 196.861 13.8937 197.882 14.8354C198.902 15.777 199.677 16.8882 200.206 18.1688C200.735 19.4495 201 20.8243 201 22.2932C201 24.5532 200.716 26.606 200.149 28.4516C199.582 30.2596 198.77 31.8227 197.711 33.141C196.653 34.4217 195.368 35.4198 193.856 36.1355C192.382 36.8135 190.719 37.1525 188.866 37.1525C187.884 37.1525 187.033 37.0771 186.315 36.9265C185.597 36.8135 184.784 36.6628 183.877 36.4745V38.6214ZM183.99 31.8416C183.99 31.9169 184.123 31.9922 184.387 32.0676C184.652 32.1052 184.954 32.1429 185.294 32.1806C185.672 32.2182 186.05 32.2371 186.428 32.2371C186.806 32.2371 187.09 32.2371 187.279 32.2371C188.564 32.2371 189.811 32.0676 191.021 31.7286C192.231 31.3519 193.308 30.7869 194.253 30.0336C195.198 29.2803 195.935 28.3386 196.464 27.2087C197.031 26.041 197.315 24.6662 197.315 23.0842C197.315 20.9373 196.54 19.3365 194.99 18.2818C193.478 17.1895 191.418 16.6434 188.81 16.6434C188.394 16.6434 187.903 16.6999 187.336 16.8128C186.806 16.9258 186.277 17.0765 185.748 17.2648C185.257 17.4532 184.822 17.698 184.444 17.9993C184.104 18.263 183.934 18.5831 183.934 18.9598L183.764 25.5702C183.726 25.8715 183.726 26.3612 183.764 27.0392C183.801 27.7171 183.839 28.414 183.877 29.1296C183.915 29.9583 183.953 30.8623 183.99 31.8416Z" fill="#2F80ED"/>
<defs>
<linearGradient id="paint0_linear" x1="22.8129" y1="45.6258" x2="22.8129" y2="-5.63503e-06" gradientUnits="userSpaceOnUse">
<stop stop-color="#FA5252"/>
<stop offset="1" stop-color="#FF795B"/>
</linearGradient>
</defs>
</svg>
