<svg width="547" height="412" viewBox="0 0 547 412" fill="none" xmlns="http://www.w3.org/2000/svg">
<path d="M273.439 411.868C424.456 411.868 546.878 319.668 546.878 205.934C546.878 92.1997 424.456 0 273.439 0C122.423 0 0 92.1997 0 205.934C0 319.668 122.423 411.868 273.439 411.868Z" fill="white"/>
<path d="M268.468 257.464L202.877 283.812L121.684 81.5973L177.126 59.3262C182.731 57.0755 189.099 59.7932 191.349 65.3994L268.468 257.464Z" fill="#F0F6FF"/>
<path d="M244.873 73.3054L119.289 95.58L150.601 272.189L276.185 249.914L244.873 73.3054Z" fill="#ADCFD8"/>
<path d="M213.153 97.0109L157.073 106.958L157.296 108.218L213.376 98.2711L213.153 97.0109Z" fill="#55769F"/>
<path d="M224.369 91.7279L144.726 105.854L144.95 107.114L224.592 92.9881L224.369 91.7279Z" fill="#55769F"/>
<path d="M235.768 106.638L139.144 123.776L139.368 125.036L235.992 107.898L235.768 106.638Z" fill="#55769F"/>
<path d="M236.843 112.696L140.219 129.834L140.442 131.094L237.066 113.956L236.843 112.696Z" fill="#55769F"/>
<path d="M238.99 124.809L142.366 141.947L142.589 143.207L239.214 126.069L238.99 124.809Z" fill="#55769F"/>
<path d="M240.065 130.866L143.44 148.004L143.664 149.264L240.288 132.126L240.065 130.866Z" fill="#55769F"/>
<path d="M241.139 136.922L144.515 154.06L144.738 155.32L241.362 138.182L241.139 136.922Z" fill="#55769F"/>
<path d="M245.861 163.56L149.237 180.698L149.46 181.959L246.084 164.82L245.861 163.56Z" fill="#55769F"/>
<path d="M246.974 169.841L150.35 186.979L150.573 188.24L247.198 171.101L246.974 169.841Z" fill="#55769F"/>
<path d="M248.088 176.121L151.464 193.259L151.687 194.519L248.311 177.381L248.088 176.121Z" fill="#55769F"/>
<path d="M249.201 182.404L152.577 199.542L152.8 200.803L249.425 183.664L249.201 182.404Z" fill="#55769F"/>
<path d="M250.315 188.685L153.691 205.823L153.914 207.083L250.538 189.945L250.315 188.685Z" fill="#55769F"/>
<path d="M251.428 194.965L154.804 212.104L155.027 213.364L251.651 196.226L251.428 194.965Z" fill="#55769F"/>
<path d="M252.542 201.245L155.917 218.383L156.141 219.644L252.765 202.505L252.542 201.245Z" fill="#55769F"/>
<path d="M226.792 68.9172L103.44 101.385L149.08 274.855L272.432 242.387L226.792 68.9172Z" fill="#DAEEF7"/>
<path d="M197.111 95.1384L142.027 109.637L142.353 110.875L197.437 96.3762L197.111 95.1384Z" fill="#55769F"/>
<path d="M207.858 88.9548L129.631 109.545L129.957 110.783L208.184 90.1926L207.858 88.9548Z" fill="#55769F"/>
<path d="M220.44 102.885L125.533 127.866L125.859 129.103L220.766 104.123L220.44 102.885Z" fill="#55769F"/>
<path d="M222.005 108.835L127.099 133.816L127.424 135.053L222.331 110.073L222.005 108.835Z" fill="#55769F"/>
<path d="M225.135 120.732L130.229 145.713L130.554 146.949L225.461 121.968L225.135 120.732Z" fill="#55769F"/>
<path d="M226.7 126.681L131.793 151.662L132.119 152.899L227.026 127.919L226.7 126.681Z" fill="#55769F"/>
<path d="M228.265 132.631L133.359 157.612L133.684 158.85L228.591 133.869L228.265 132.631Z" fill="#55769F"/>
<path d="M235.149 158.798L140.242 183.779L140.568 185.016L235.475 160.036L235.149 158.798Z" fill="#55769F"/>
<path d="M236.773 164.966L141.866 189.946L142.192 191.184L237.098 166.203L236.773 164.966Z" fill="#55769F"/>
<path d="M238.397 171.133L143.49 196.114L143.815 197.352L238.722 172.371L238.397 171.133Z" fill="#55769F"/>
<path d="M240.02 177.304L145.113 202.285L145.439 203.523L240.346 178.542L240.02 177.304Z" fill="#55769F"/>
<path d="M241.643 183.473L146.736 208.453L147.062 209.691L241.969 184.71L241.643 183.473Z" fill="#55769F"/>
<path d="M243.266 189.642L148.359 214.623L148.685 215.861L243.592 190.88L243.266 189.642Z" fill="#55769F"/>
<path d="M244.89 195.809L149.983 220.79L150.309 222.028L245.215 197.047L244.89 195.809Z" fill="#55769F"/>
<path d="M243.579 267.461L111.529 320.504L34.5117 128.691L145.474 60.2256C151.71 56.3772 159.909 59.0776 162.639 65.8794L243.579 267.461Z" fill="#2F80ED"/>
<path d="M68.9175 289.464L50.0794 289.122C43.5406 277.268 38.7397 266.959 38.7397 266.959C60.0161 262.054 77.9723 264.069 92.9304 269.82L101.175 289.849L102.939 274.427C140.014 294.437 155.29 336.8 155.29 336.8C155.29 336.8 89.768 329.818 75.8778 323.358C70.5149 320.863 63.7557 311.886 57.4806 301.805C62.5019 297.022 68.9175 289.464 68.9175 289.464Z" fill="#FF775B"/>
<path d="M38.7397 266.959C38.7397 266.959 122.862 302.367 155.29 336.8C155.29 336.8 89.768 329.818 75.8778 323.358C70.5149 320.863 63.7557 311.886 57.4806 301.805C62.5019 297.022 68.9175 289.464 68.9175 289.464L50.0794 289.122C43.5384 277.268 38.7397 266.959 38.7397 266.959Z" fill="#FA5353"/>
<path d="M41.4244 323.551C52.7511 316.652 64.1793 312.959 75.238 311.486C78.4782 315.516 82.4576 320.258 82.4576 320.258L82.877 310.808C125.309 308.875 160.467 337.31 160.467 337.31C135.892 352.803 114.929 357.075 97.7551 355.689C96.737 352.383 95.2974 347.452 95.2974 347.452L92.2647 355.043C84.0334 353.756 76.7683 351.188 70.4955 348.049C72.1015 344.111 73.794 339.608 73.794 339.608L64.6484 344.803C49.325 335.435 41.4244 323.551 41.4244 323.551Z" fill="#FF775B"/>
<path d="M97.7572 355.691C96.7391 352.386 95.2995 347.454 95.2995 347.454L92.2668 355.045C84.0356 353.759 76.7705 351.19 70.4976 348.051C72.1037 344.114 73.7962 339.61 73.7962 339.61L64.6506 344.806C49.325 335.435 41.4244 323.548 41.4244 323.548C90.8618 317.836 160.467 337.31 160.467 337.31C135.892 352.805 114.929 357.075 97.7572 355.691Z" fill="#FA5353"/>
<path d="M289.005 68.6143L304.19 57.4604C302.688 44.0039 300.658 32.8154 300.658 32.8154C280.454 41.0938 266.952 53.1039 258.055 66.4372L262.882 87.5538L252.541 75.9782C233.813 113.723 245.786 157.135 245.786 157.135C245.786 157.135 295.263 113.606 302.878 100.31C305.818 95.1771 306.157 83.9432 305.463 72.0887C298.604 71.0834 289.005 68.6143 289.005 68.6143Z" fill="#02CCC0"/>
<path d="M300.658 32.8154C300.658 32.8154 252.398 110.296 245.788 157.135C245.788 157.135 295.265 113.606 302.88 100.31C305.82 95.1771 306.159 83.9432 305.465 72.0887C298.604 71.0834 289.005 68.6143 289.005 68.6143L304.19 57.4604C302.687 44.0039 300.658 32.8154 300.658 32.8154Z" fill="#06BFAD"/>
<path d="M331.125 80.5768C317.894 81.4827 306.431 85.0652 296.553 90.2476C296.233 95.4106 295.719 101.579 295.719 101.579L289.923 94.1047C254.16 117.022 241.859 160.542 241.859 160.542C270.867 159.005 290.451 150.391 303.675 139.345C302.599 136.059 300.928 131.199 300.928 131.199L307.787 135.646C313.766 129.843 318.216 123.552 321.528 117.366C317.944 115.079 313.962 112.378 313.962 112.378L324.429 111.34C331.532 94.8441 331.125 80.5768 331.125 80.5768Z" fill="#02CCC0"/>
<path d="M303.673 139.345C302.597 136.059 300.926 131.199 300.926 131.199L307.784 135.646C313.763 129.843 318.214 123.552 321.526 117.366C317.942 115.079 313.96 112.378 313.96 112.378L324.426 111.34C331.532 94.8398 331.125 80.5725 331.125 80.5725C287.459 104.45 241.856 160.538 241.856 160.538C270.865 159.005 290.449 150.391 303.673 139.345Z" fill="#06BFAD"/>
<path d="M452.517 135.771H461.548C460.072 134.762 458.224 134.156 456.211 134.156H229.989C218.155 134.156 208.56 142.664 208.56 153.156V165.225C208.56 175.719 218.155 184.225 229.989 184.225L453.68 184.158L452.517 135.771Z" fill="#FA5353"/>
<path d="M227.536 165.227V153.158C227.536 142.664 237.131 134.159 248.966 134.159H244.109C232.274 134.159 222.679 142.666 222.679 153.158V165.227C222.679 175.721 232.274 184.227 244.109 184.227L248.903 184.225C237.097 184.194 227.536 175.702 227.536 165.227Z" fill="#FF775B"/>
<path d="M280.516 165.227V153.158C280.516 142.664 290.112 134.159 301.946 134.159H297.089C285.255 134.159 275.659 142.666 275.659 153.158V165.227C275.659 175.721 285.255 184.227 297.089 184.227L301.884 184.225C290.077 184.194 280.516 175.702 280.516 165.227Z" fill="#FF775B"/>
<path d="M324.087 134.202C312.769 134.202 303.593 142.338 303.593 152.374V166.012C303.593 176.048 312.769 184.182 324.087 184.182H464.914V181.131H464.332L428.53 178.126L421.293 152.955C421.293 152.955 435.259 139.047 436.171 138.688C437.081 138.329 464.332 137.242 464.332 137.242L464.914 137.235V134.202H324.087Z" fill="#FF775B"/>
<path d="M455.781 159.102C455.781 144.385 464.358 137.252 464.358 137.252H326.971C316.574 137.252 308.148 144.724 308.148 153.943V164.442C308.148 173.659 316.576 181.133 326.971 181.133H464.358C464.358 181.131 455.781 177.633 455.781 159.102Z" fill="#DAEEF7"/>
<path d="M308.146 153.943V164.442C308.146 165.822 308.338 167.162 308.695 168.444C313.329 158.393 322.209 148.711 339.114 145.598C378.585 138.329 464.356 137.252 464.356 137.252H326.968C316.573 137.252 308.146 144.724 308.146 153.943Z" fill="#DAEEF7"/>
<path d="M448.79 235.852H459.01C457.337 234.587 455.247 233.83 452.971 233.83H196.935C183.539 233.83 172.68 244.478 172.68 257.613V272.719C172.68 285.853 183.539 296.501 196.935 296.501L450.109 296.417L448.79 235.852Z" fill="#07085B"/>
<path d="M303.433 233.887C290.624 233.887 280.237 244.07 280.237 256.631V273.703C280.237 286.264 290.622 296.447 303.433 296.447H462.823V292.629H462.164L421.643 288.867L413.453 257.362C413.453 257.362 429.261 239.953 430.292 239.504C431.323 239.054 462.164 237.692 462.164 237.692L462.823 237.685V233.887H303.433Z" fill="#55769F"/>
<path d="M452.485 265.055C452.485 246.634 462.192 237.705 462.192 237.705H306.697C294.93 237.705 285.393 247.058 285.393 258.597V271.737C285.393 283.274 294.932 292.629 306.697 292.629H462.192C462.192 292.629 452.485 288.247 452.485 265.055Z" fill="#DAEEF7"/>
<path d="M285.393 258.597V271.737C285.393 273.465 285.611 275.143 286.013 276.747C291.257 264.164 301.308 252.046 320.443 248.15C365.116 239.052 462.192 237.705 462.192 237.705H306.697C294.932 237.705 285.393 247.058 285.393 258.597Z" fill="#DAEEF7"/>
<path d="M164.241 185.704H154.017C155.69 184.7 157.782 184.099 160.058 184.099H416.196C429.598 184.099 440.46 192.549 440.46 202.972V214.958C440.46 225.381 429.596 233.83 416.196 233.83L162.922 233.763L164.241 185.704Z" fill="#02CCC0"/>
<path d="M309.656 184.145C322.472 184.145 332.861 192.224 332.861 202.191V215.739C332.861 225.706 322.472 233.785 309.656 233.785H150.204V230.754H150.863L191.399 227.768L199.591 202.769C199.591 202.769 183.777 188.955 182.746 188.599C181.715 188.242 150.861 187.161 150.861 187.161L150.201 187.154V184.141H309.656V184.145Z" fill="#06BFAD"/>
<path d="M160.547 208.876C160.547 194.261 150.835 187.176 150.835 187.176H306.39C318.162 187.176 327.703 194.598 327.703 203.752V214.18C327.703 223.334 318.16 230.756 306.39 230.756H150.835C150.835 230.756 160.547 227.28 160.547 208.876Z" fill="#DAEEF7"/>
<path d="M327.703 203.752V214.18C327.703 215.55 327.485 216.882 327.081 218.156C321.835 208.171 311.779 198.557 292.638 195.465C247.948 188.246 150.833 187.176 150.833 187.176H306.388C318.162 187.174 327.703 194.596 327.703 203.752Z" fill="#DAEEF7"/>
<path opacity="0.5" d="M393.538 214.958V202.972C393.538 192.549 382.674 184.099 369.275 184.099H393.597C406.999 184.099 417.861 192.549 417.861 202.972V214.958C417.861 225.381 406.996 233.83 393.597 233.83L369.597 233.824C382.847 233.69 393.538 225.297 393.538 214.958Z" fill="#55769F"/>
<path d="M144.903 298.423H133.881C135.684 297.301 137.941 296.631 140.394 296.631H416.516C430.962 296.631 442.673 306.071 442.673 317.715V331.109C442.673 342.754 430.962 352.193 416.516 352.193L143.483 352.118L144.903 298.423Z" fill="#2F80ED"/>
<path d="M301.665 296.681C315.48 296.681 326.681 305.71 326.681 316.844V331.98C326.681 343.117 315.482 352.144 301.665 352.144H129.772V348.758H130.483L174.182 345.422L183.014 317.49C183.014 317.49 165.968 302.056 164.855 301.658C163.744 301.26 130.481 300.051 130.481 300.051L129.77 300.045V296.679H301.665V296.681Z" fill="#F0F6FF"/>
<path d="M140.92 324.314C140.92 307.984 130.451 300.067 130.451 300.067H298.144C310.834 300.067 321.121 308.358 321.121 318.587V330.238C321.121 340.466 310.834 348.76 298.144 348.76H130.451C130.451 348.758 140.92 344.875 140.92 324.314Z" fill="#DAEEF7"/>
<path d="M150.452 336.404L152.799 341.64C152.994 342.073 152.799 342.581 152.367 342.775L140.109 348.271C139.223 348.669 138.364 347.662 138.898 346.851L143.643 339.459C143.643 339.457 147.391 340.142 150.452 336.404Z" fill="#07085B"/>
<path d="M166.024 336.404L168.372 341.64C168.566 342.073 168.372 342.581 167.939 342.775L155.681 348.271C154.795 348.669 153.937 347.662 154.47 346.851L159.215 339.459C159.215 339.457 162.965 340.142 166.024 336.404Z" fill="#07085B"/>
<path d="M428.949 179.39L426.602 184.627C426.407 185.059 426.602 185.567 427.034 185.762L439.293 191.258C440.179 191.656 441.037 190.648 440.503 189.837L435.758 182.445C435.758 182.443 432.01 183.131 428.949 179.39Z" fill="#07085B"/>
<path d="M413.066 178.768L410.719 184.004C410.524 184.437 410.719 184.945 411.151 185.139L423.409 190.635C424.298 191.033 425.154 190.025 424.62 189.215L419.877 181.823C419.875 181.821 416.125 182.508 413.066 178.768Z" fill="#07085B"/>
<path d="M321.119 318.587V330.238C321.119 331.768 320.884 333.256 320.449 334.679C314.794 323.525 303.954 312.779 283.32 309.327C235.143 301.262 130.451 300.067 130.451 300.067H298.144C310.832 300.067 321.119 308.358 321.119 318.587Z" fill="#DAEEF7"/>
<path d="M192.501 192.047L193.805 200.224L196.559 189.323C196.559 189.323 192.7 187.451 192.529 188.132C192.359 188.813 192.501 192.047 192.501 192.047Z" fill="#07085B"/>
<path d="M214.409 209.646L215.6 223.781L203.13 223.185L204.567 210.669L214.409 209.646Z" fill="#FFC0BB"/>
<path d="M203.884 216.621L204.567 210.669L214.409 209.646L214.822 214.541C212.865 216.491 209.346 218.512 203.884 216.621Z" fill="#F99893"/>
<path d="M196.236 200.122C196.986 201.672 196.589 203.417 195.348 204.018C194.107 204.619 192.493 203.847 191.745 202.295C190.995 200.745 191.392 199 192.633 198.399C193.874 197.8 195.486 198.57 196.236 200.122Z" fill="#F99893"/>
<path d="M194.427 201.257C194.362 200.853 194.274 200.453 194.176 200.055C193.787 198.447 193.686 196.721 193.954 194.925C194.821 189.141 199.472 184.53 205.265 183.728C213.069 182.649 219.942 188.428 220.429 196.081C221.231 195.567 222.158 195.4 223.005 195.716C224.629 196.321 225.331 198.455 224.575 200.485C223.818 202.516 221.89 203.668 220.267 203.065C220.042 202.98 219.836 202.864 219.646 202.725C219.395 209.281 214.378 214.645 207.974 214.945C204.842 215.092 201.928 214 199.665 212.087C196.591 209.825 195.037 205.026 194.427 201.257Z" fill="#FFC0BB"/>
<path d="M204.141 196.985C204.115 197.748 204.109 198.494 204.07 199.225C204.022 199.938 203.945 200.702 203.659 201.205C203.367 201.612 203.138 201.873 203.132 202.373C203.114 202.879 203.38 203.331 203.713 203.607C204.394 204.18 205.276 204.234 206.007 204.055C205.261 203.923 204.548 203.668 204.133 203.182C203.94 202.939 203.813 202.669 203.858 202.416C203.89 202.137 203.975 202.079 204.314 201.61C204.552 201.203 204.63 200.79 204.675 200.39C204.712 199.99 204.708 199.601 204.671 199.214C204.591 198.444 204.429 197.696 204.141 196.985Z" fill="#F99893"/>
<path d="M208.562 197.993C208.592 198.635 209.137 199.13 209.779 199.1C210.421 199.069 210.916 198.524 210.885 197.882C210.855 197.24 210.31 196.745 209.668 196.775C209.026 196.808 208.531 197.35 208.562 197.993Z" fill="#A63030"/>
<path d="M198.614 199.115C198.644 199.757 199.189 200.252 199.831 200.222C200.473 200.191 200.968 199.647 200.938 199.004C200.907 198.362 200.363 197.867 199.721 197.897C199.081 197.928 198.584 198.473 198.614 199.115Z" fill="#A63030"/>
<path d="M210.514 205.871C210.209 206.137 209.889 206.383 209.552 206.602C209.219 206.827 208.875 207.03 208.516 207.203C207.801 207.549 207.042 207.802 206.26 207.897C205.477 207.996 204.682 207.927 203.916 207.724C203.153 207.51 202.425 207.158 201.735 206.734C202.483 207.363 203.102 207.676 203.847 207.949C204.632 208.21 205.414 208.299 206.296 208.2C207.118 208.094 207.913 207.817 208.624 207.41C209.336 207.002 209.991 206.492 210.514 205.871Z" fill="#F99893"/>
<path d="M207.1 195.366C207.693 195.182 208.25 195.044 208.802 194.957C209.353 194.873 209.891 194.858 210.416 194.923C210.939 194.992 211.465 195.104 211.97 195.335C212.357 195.457 213.298 196.01 213.542 196.116C213.254 195.586 212.837 195.02 212.323 194.706C211.811 194.317 211.169 194.094 210.52 194.012C209.867 193.934 209.202 194.03 208.609 194.267C208.021 194.507 207.481 194.868 207.1 195.366Z" fill="#07085B"/>
<path d="M201.978 195.943C201.508 195.528 200.91 195.279 200.285 195.158C199.658 195.041 198.986 195.076 198.361 195.279C197.741 195.485 197.153 195.828 196.727 196.311C196.282 196.719 195.983 197.357 195.804 197.93C196.027 197.774 196.839 197.052 197.194 196.86C197.646 196.535 198.139 196.324 198.638 196.153C199.142 195.988 199.673 195.898 200.229 195.874C200.787 195.85 201.362 195.878 201.978 195.943Z" fill="#07085B"/>
<path d="M207.541 275.953C207.541 275.953 210.142 293.6 193.096 296.674C176.05 299.749 154.84 298.832 154.84 298.832L151.89 339.366L142.99 339.82C142.99 339.82 120.078 283.501 151.792 274.697L180.295 274.838L192.03 273.999C192.03 273.999 203.906 271.065 204.046 271.623C204.189 272.181 207.263 276.232 207.541 275.953Z" fill="#06BFAD"/>
<path d="M223.206 276.046C223.206 276.046 225.807 293.693 208.761 296.767C191.714 299.842 170.505 298.925 170.505 298.925L167.554 339.459L158.655 339.913C158.655 339.913 135.743 283.594 167.457 274.79L195.96 274.931L207.695 274.092C207.695 274.092 219.571 271.158 219.711 271.716C219.854 272.274 222.928 276.325 223.206 276.046Z" fill="#02CCC0"/>
<path d="M201.736 218.145C201.736 218.145 189.998 219.635 187.017 222.058C184.037 224.48 169.692 260.069 169.692 260.069L181.616 274.044L206.951 274.23C206.951 274.23 225.954 284.478 237.875 274.79C249.798 265.1 243.651 231.374 236.757 224.108C229.864 216.841 217.569 217.027 217.569 217.027C217.569 217.027 206.394 224.852 201.736 218.145Z" fill="#FF775B"/>
<path d="M224.464 235.845C224.045 237.785 223.788 239.754 223.604 241.728C223.503 242.716 223.459 243.707 223.403 244.699C223.373 245.691 223.351 246.684 223.364 247.678C223.403 249.665 223.511 251.659 223.853 253.626C224.186 255.585 224.672 257.552 225.582 259.323C224.97 257.433 224.665 255.492 224.445 253.546C224.229 251.598 224.153 249.633 224.129 247.67C224.088 245.704 224.136 243.737 224.199 241.767C224.268 239.798 224.359 237.826 224.464 235.845Z" fill="white"/>
<path d="M189.347 234.542C188.811 237.428 188.243 240.304 187.666 243.175C187.076 246.044 186.466 248.906 185.772 251.745C185.087 254.586 184.324 257.41 183.401 260.177C182.938 261.561 182.422 262.925 181.819 264.25C181.222 265.578 180.515 266.864 179.566 267.986C180.645 266.979 181.438 265.703 182.154 264.417C182.848 263.113 183.446 261.76 183.963 260.378C184.49 259.001 184.942 257.598 185.372 256.188C185.785 254.774 186.163 253.352 186.518 251.925C186.855 250.493 187.177 249.058 187.467 247.618C187.746 246.176 188.022 244.731 188.254 243.281C188.731 240.384 189.105 237.469 189.347 234.542Z" fill="white"/>
<path d="M183.451 265.989C183.524 265.398 188.003 264.741 189.648 264.655C190.895 264.59 199.161 264.313 201.971 264.188L201.764 264.912L201.807 268.105L202.269 270.222C199.803 270.377 193.772 270.613 192.516 270.862C190.839 271.193 187.929 272.457 187.929 272.457C187.929 272.457 186.719 272.183 188.258 271.519C189.492 270.985 190.359 270.161 190.727 269.75C190.938 269.515 190.709 269.093 190.556 269.134C186.369 270.233 185.939 270.414 185.939 270.414C185.939 270.414 181.019 270.386 185.911 269.281C188.844 268.618 189.894 268.233 190.156 267.904C190.266 267.764 190.069 267.288 189.89 267.277C187.35 267.119 182.789 268.021 184.039 267.431C185.057 266.948 188.265 266.421 189.514 266.222C189.59 266.209 189.715 265.744 189.373 265.716C186.95 265.511 183.382 266.538 183.451 265.989Z" fill="#FFC0BB"/>
<path d="M227.329 258.834C226.298 259.085 225.282 259.373 224.248 259.589C223.222 259.833 222.18 260.013 221.147 260.229C219.069 260.607 216.985 260.938 214.897 261.23C212.805 261.504 210.71 261.757 208.612 261.961C206.519 262.168 204.392 262.345 202.321 262.462L202.042 262.477L201.982 262.72C201.805 263.422 201.688 264.108 201.599 264.81C201.511 265.511 201.474 266.216 201.476 266.92C201.483 267.627 201.543 268.334 201.66 269.033C201.79 269.731 201.995 270.414 202.274 271.069L202.298 271.126L202.343 271.156L204.645 272.699C205.412 273.214 206.182 273.726 206.958 274.226C206.236 273.649 205.508 273.08 204.777 272.516L202.583 270.823L202.652 270.909C202.421 270.276 202.259 269.621 202.17 268.951C202.088 268.28 202.051 267.601 202.071 266.923C202.092 266.244 202.159 265.567 202.254 264.895C202.354 264.224 202.486 263.545 202.661 262.91L202.321 263.167C203.415 263.139 204.453 263.068 205.516 262.99C206.573 262.912 207.632 262.828 208.687 262.717C210.797 262.499 212.902 262.237 214.999 261.902C217.094 261.565 219.177 261.154 221.244 260.668C222.273 260.404 223.302 260.151 224.315 259.831C225.331 259.546 226.332 259.189 227.329 258.834Z" fill="white"/>
<path d="M130.451 242.273H176.279L189.272 273.997H211.348C211.966 273.997 212.466 274.498 212.466 275.114C212.466 275.733 211.964 276.232 211.348 276.232H145.679L130.451 242.273Z" fill="#07085B"/>
<path d="M153.176 260.376C153.446 261.727 154.624 262.631 155.806 262.395C156.989 262.157 157.728 260.871 157.458 259.518C157.188 258.166 156.01 257.26 154.827 257.498C153.645 257.736 152.903 259.025 153.176 260.376Z" fill="#DAEEF7"/>
<path d="M192.25 184.311C192.25 184.311 188.338 184.437 192.443 181.129C196.55 177.819 207.572 173.94 214.638 177.672C214.638 177.672 216.052 174.666 218.094 175.384C220.137 176.102 216.767 178.169 216.767 178.169C216.767 178.169 219.376 178.085 220.172 179.365C220.76 180.311 219.162 180.353 218.289 180.309C219.774 180.562 225.465 184.158 222.61 195.638C221.594 195.415 215.807 187.022 215.807 187.022C215.807 187.022 202.574 194.376 203.882 188.529C203.882 188.529 190.171 197.087 192.116 190.019C192.119 190.017 186.816 190.406 192.25 184.311Z" fill="#07085B"/>
<path d="M222.621 195.707C222.621 195.707 221.525 195.322 220.347 196.259C219.169 197.195 219.298 200.481 219.298 200.481C219.298 200.481 213.674 204.109 214.266 188.756C214.897 172.422 218.959 190.067 218.959 190.067L222.621 195.707Z" fill="#07085B"/>
<path d="M399.207 341.656H515.539V335.205H399.207V341.656Z" fill="#DAEEF7"/>
<path d="M512.293 285.276L514.057 293.39C514.734 296.504 512.749 299.571 509.632 300.231L405.74 322.16C402.554 322.833 399.446 320.723 398.895 317.51L397.983 312.18C397.568 309.757 398.739 307.34 400.899 306.166L432.014 289.239C432.674 288.88 433.396 288.655 434.141 288.575L505.413 280.872L505.925 280.803C508.887 280.409 511.658 282.355 512.293 285.276Z" fill="#DAEEF7"/>
<path d="M407.217 309.394C407.217 309.394 392.38 320.202 403.186 338.025L402.541 342.622L383.511 343.913L366.093 340.363L362.868 311.326L404.638 298.906L407.217 309.394Z" fill="#FA5353"/>
<path d="M363.698 352.193H525.241C526.769 352.193 528.01 350.952 528.01 349.424V340.793C528.01 339.264 526.771 338.023 525.241 338.023H363.698C362.17 338.023 360.929 339.262 360.929 340.793V349.424C360.931 350.954 362.17 352.193 363.698 352.193Z" fill="#FF775B"/>
<path d="M524.279 283.412L405.54 311.417C404.591 311.642 403.598 311.612 402.66 311.342C397.987 309.999 382.147 306.652 368.819 318.033C365.671 320.718 360.812 319.291 359.68 315.313L357.555 307.841C356.867 305.42 357.86 302.838 359.993 301.502C377.232 290.711 452.705 245.523 502.391 248.96C507.075 249.285 511.299 251.896 513.685 255.942L526.631 277.884C527.911 280.053 526.724 282.835 524.279 283.412Z" fill="#FF775B"/>
<path d="M384.369 333.773C388.288 333.773 391.466 330.595 391.466 326.675C391.466 322.755 388.288 319.577 384.369 319.577C380.45 319.577 377.273 322.755 377.273 326.675C377.273 330.595 380.45 333.773 384.369 333.773Z" fill="#FF775B"/>
<path d="M398.739 9.21459C398.739 9.21459 412.098 6.96175 416.581 21.8884L411.049 30.1712C411.049 30.1712 399.446 25.7131 399.401 25.2763C399.353 24.8396 398.739 9.21459 398.739 9.21459Z" fill="#FF775B"/>
<path d="M377.238 15.9385C377.238 15.9385 373.343 21.7998 371.354 24.124C366.355 29.9701 365.71 28.1367 362.602 33.1634C359.247 38.5901 362.641 41.9889 364.571 43.5542C366.499 45.1195 363.272 50.9051 366.867 54.1481C371.573 58.3944 375.924 54.3903 379.16 56.7685C382.396 59.1468 383.105 62.673 390.776 62.0071C398.447 61.3412 398.374 36.2508 398.374 36.2508C398.374 36.2508 392.095 22.95 391.846 22.8397C391.595 22.7295 377.238 15.9385 377.238 15.9385Z" fill="#FF775B"/>
<path d="M416.581 21.8884C416.581 21.8884 417.039 26.4914 418.561 29.1442C422.391 35.8162 424.453 33.6304 426.576 39.1479C428.865 45.1022 424.901 47.8134 422.715 48.9917C420.53 50.1721 422.629 56.455 418.496 58.9759C413.086 62.2752 409.551 57.5339 405.931 59.27C402.31 61.0061 400.959 64.34 393.545 62.2622C386.129 60.1845 390.854 35.5438 390.854 35.5438C390.854 35.5438 399.491 23.6375 399.755 23.577C400.019 23.5186 416.581 21.8884 416.581 21.8884Z" fill="#FF775B"/>
<path d="M397.198 51.6013C397.198 51.6013 384.395 49.2447 378.507 49.4436C372.619 49.6425 382.076 64.954 382.076 64.954L391.693 65.168C391.693 65.168 397.587 58.5825 397.2 57.8171C396.813 57.0518 397.218 52.0272 397.218 52.0272L397.198 51.6013Z" fill="#FFC0BB"/>
<path d="M385.781 39.3793L382.402 49.6317C382.402 49.6317 385.342 55.7113 394.347 53.0888C394.347 53.0888 393.32 50.9656 394.697 46.5918C396.106 42.1251 385.781 39.3793 385.781 39.3793Z" fill="#FFC0BB"/>
<path opacity="0.6" d="M385.781 39.3793L384.196 44.1682C385.141 47.6685 388.204 50.0533 393.984 50.7927C393.982 49.7527 394.144 48.3604 394.699 46.594C396.106 42.1251 385.781 39.3793 385.781 39.3793Z" fill="#6D322D"/>
<path d="M406.38 31.8727C405.65 33.5375 406.136 35.3623 407.468 35.946C408.799 36.5298 410.47 35.6541 411.203 33.9894C411.934 32.3246 411.447 30.4998 410.116 29.9161C408.784 29.3323 407.113 30.208 406.38 31.8727Z" fill="#F99893"/>
<path d="M406.754 39.4334C407.619 37.2886 408.086 35.0012 408.335 33.0013C408.389 32.5732 408.466 32.1473 408.551 31.7235C408.899 30.0112 408.94 28.1886 408.587 26.3033C407.448 20.2367 402.364 15.5537 396.223 14.9332C387.953 14.0986 380.926 20.4572 380.712 28.5497C379.845 28.0373 378.862 27.8989 377.982 28.2643C376.294 28.9648 375.634 31.2436 376.512 33.3559C377.387 35.466 379.467 36.6097 381.155 35.9092C381.388 35.812 381.602 35.6822 381.795 35.5287C382.314 42.4321 387.81 47.8956 394.578 47.9647C399.656 48.0123 404.656 44.9314 406.754 39.4334Z" fill="#FFC0BB"/>
<path d="M397.924 28.8697C397.658 29.6329 397.518 30.4285 397.475 31.2392C397.453 31.6457 397.462 32.0565 397.518 32.4759C397.583 32.8932 397.678 33.3234 397.944 33.7386C398.251 34.1342 398.413 34.2639 398.458 34.5796C398.514 34.852 398.387 35.1482 398.19 35.4098C397.764 35.9417 397.016 36.2335 396.234 36.3935C397.012 36.547 397.935 36.4497 398.622 35.8228C398.96 35.5201 399.219 35.0379 399.18 34.5126C399.141 33.9677 398.897 33.7256 398.579 33.3126C398.413 33.0618 398.311 32.7094 398.231 32.3527C398.143 31.9938 398.119 31.6111 398.071 31.2284C398.002 30.4588 397.972 29.6739 397.924 28.8697Z" fill="#F99893"/>
<path d="M393.301 30.1064C393.294 30.7852 392.739 31.3279 392.06 31.3214C391.381 31.3149 390.839 30.7593 390.845 30.0804C390.852 29.4015 391.407 28.8589 392.086 28.8654C392.765 28.8718 393.307 29.4275 393.301 30.1064Z" fill="#A63030"/>
<path d="M403.836 30.9041C403.83 31.583 403.274 32.1257 402.595 32.1192C401.919 32.1127 401.374 31.5571 401.381 30.8782C401.387 30.1993 401.943 29.6566 402.621 29.6631C403.298 29.6696 403.843 30.2252 403.836 30.9041Z" fill="#A63030"/>
<path opacity="0.3" d="M393.085 39.442C393.085 39.442 394.84 38.8128 396.493 39.896C396.493 39.896 398.279 38.7782 399.686 39.8463C399.686 39.8463 399.033 42.5056 396.1 42.3261C393.165 42.1467 393.085 39.442 393.085 39.442Z" fill="#F99893"/>
<path d="M391.548 38.4886C391.881 38.7566 392.224 39.0053 392.59 39.2215C392.948 39.4442 393.32 39.6452 393.705 39.8139C394.472 40.1512 395.283 40.389 396.113 40.4582C396.941 40.5317 397.777 40.4301 398.577 40.1858C399.375 39.9306 400.127 39.5307 400.838 39.0572C400.52 39.3447 400.181 39.6063 399.818 39.8398C399.455 40.0733 399.061 40.2571 398.659 40.4214C398.253 40.5728 397.827 40.6852 397.395 40.7457C396.962 40.8019 396.522 40.8127 396.085 40.7803C395.214 40.6982 394.364 40.4387 393.599 40.0366C392.834 39.6366 392.125 39.1242 391.548 38.4886Z" fill="#F99893"/>
<path d="M394.738 27.2784C394.107 27.1076 393.513 26.9822 392.929 26.913C392.345 26.8438 391.775 26.8503 391.223 26.939C390.674 27.0341 390.125 27.1725 389.6 27.4341C389.198 27.5746 388.225 28.1951 387.972 28.3183C388.253 27.7519 388.673 27.1357 389.205 26.7854C389.73 26.3552 390.398 26.0958 391.079 25.9833C391.764 25.8752 392.471 25.9509 393.104 26.1779C393.737 26.4093 394.319 26.7682 394.738 27.2784Z" fill="#FF775B"/>
<path d="M400.166 27.6892C400.646 27.233 401.266 26.9476 401.921 26.7941C402.578 26.6449 403.289 26.6579 403.955 26.8482C404.617 27.0406 405.25 27.38 405.717 27.8708C406.203 28.2837 406.543 28.9432 406.752 29.542C406.512 29.3885 405.626 28.6556 405.246 28.4654C404.757 28.1411 404.227 27.9378 403.696 27.7757C403.158 27.6222 402.593 27.5465 402.005 27.5422C401.417 27.5443 400.812 27.5962 400.166 27.6892Z" fill="#FF775B"/>
<path d="M374.925 114.244C374.925 114.244 371.149 132.018 388.282 136.238C405.414 140.459 427.036 140.887 427.036 140.887L427.436 182.288L436.454 183.321C436.454 183.321 463.366 127.532 431.684 116.544L402.695 114.856L390.817 113.25C390.817 113.25 378.931 109.503 378.753 110.063C378.578 110.623 375.193 114.547 374.925 114.244Z" fill="#2871D5"/>
<path d="M358.994 113.334C358.994 113.334 355.218 131.108 372.351 135.328C389.483 139.548 411.106 139.977 411.106 139.977L411.506 181.377L420.524 182.411C420.524 182.411 447.435 126.622 415.753 115.634L386.764 113.946L374.886 112.339C374.886 112.339 363 108.592 362.823 109.152C362.645 109.712 359.26 113.634 358.994 113.334Z" fill="#2F80ED"/>
<path d="M416.287 141.164C415.792 141.075 415.299 140.991 414.813 140.876C414.324 140.764 413.844 140.632 413.367 140.489C413.127 140.413 412.887 140.333 412.651 140.247C412.898 140.195 413.137 140.124 413.377 140.039C413.849 139.873 414.287 139.633 414.7 139.363C415.098 139.069 415.478 138.751 415.807 138.387C416.14 138.026 416.423 137.629 416.674 137.214L416.183 137.745C416.006 137.91 415.844 138.085 415.66 138.238C415.31 138.563 414.921 138.837 414.519 139.084C414.114 139.328 413.689 139.525 413.248 139.68C412.811 139.827 412.338 139.935 411.901 139.953L411.099 139.981L411.81 140.312C412.292 140.537 412.774 140.684 413.267 140.822C413.758 140.96 414.257 141.055 414.756 141.142C415.258 141.222 415.759 141.293 416.263 141.33C416.767 141.367 417.273 141.393 417.776 141.391C417.281 141.315 416.782 141.252 416.287 141.164Z" fill="#DAEEF7"/>
<path d="M411.748 76.5512C411.748 76.5512 412.915 105.592 416.179 110.138L398.223 106.056V74.4518L411.748 76.5512Z" fill="#FFC0BB"/>
<path d="M404.098 80.5163C404.098 80.5163 401.599 87.8262 401.145 91.707C400.017 101.348 401.242 108.149 403.237 113.637C406.037 121.333 383.182 118.536 382.715 118.302C382.248 118.069 362.66 110.489 362.66 110.489L358.929 99.6417V80.5142L359.978 71.7666L404.098 80.5163Z" fill="#02CCC0"/>
<path d="M349.367 71.7687L363.748 76.6657C363.748 76.6657 361.26 99.6806 362.038 102.945C362.701 105.736 373.131 111.286 379.739 114.393C380.802 114.893 381.974 115.107 383.146 115.012C386.909 114.702 393.582 114.119 394.63 114.047C396.275 113.935 400.799 114.049 400.944 114.627C401.078 115.163 397.412 114.573 395.032 115.063C394.697 115.133 394.876 115.58 394.954 115.582C396.217 115.63 399.465 115.768 400.533 116.125C401.845 116.562 397.209 116.216 394.706 116.676C394.531 116.709 394.39 117.206 394.518 117.331C394.816 117.628 395.905 117.883 398.897 118.19C403.886 118.7 399.005 119.318 399.005 119.318C399.005 119.318 398.555 119.191 394.267 118.603C394.109 118.581 393.934 119.026 394.172 119.234C394.585 119.597 395.544 120.313 396.835 120.693C398.441 121.167 397.271 121.586 397.271 121.586C397.271 121.586 394.232 120.68 392.527 120.553C391.251 120.458 385.236 120.946 382.767 121.089L382.579 120.665C379.235 120.568 352.555 119.876 349.987 103.334C347.346 86.3084 349.367 71.7687 349.367 71.7687Z" fill="#FFC0BB"/>
<path d="M453.896 88.2499H408.069L395.075 119.973H373.001C372.383 119.973 371.884 120.475 371.884 121.091C371.884 121.71 372.383 122.209 373.001 122.209H438.668L453.896 88.2499Z" fill="#07085B"/>
<path d="M431.174 106.353C430.904 107.704 429.726 108.61 428.543 108.372C427.361 108.136 426.621 106.848 426.892 105.494C427.162 104.143 428.34 103.237 429.522 103.475C430.705 103.713 431.444 105.001 431.174 106.353Z" fill="#DAEEF7"/>
<path d="M397.198 51.6013C397.198 51.6013 388.493 61.7628 378.507 49.4436C378.507 49.4436 367.595 48.555 359.55 54.2692C351.505 59.9835 346.686 72.8195 346.686 72.8195C346.686 72.8195 361.262 80.1661 364.876 80.5163H405.336C405.336 80.5163 411.516 80.0493 417.463 77.0181C417.463 77.0181 416.436 56.615 397.198 51.6013Z" fill="#02CCC0"/>
<path d="M370.196 68.9365C369.819 70.1969 369.482 71.466 369.147 72.7373C368.52 75.2345 367.943 77.6127 367.52 80.1661C366.731 80.2028 365.842 80.0882 365.062 79.9758C360.86 79.2277 358.099 78.0516 354.358 76.5187C348.753 73.9654 349.509 74.2118 346.684 72.8173C349.965 74.8929 351.734 75.829 354.124 77.0246C357.401 78.5445 360.533 79.9499 364.943 80.7282C366.871 80.992 367.424 80.9336 368.157 80.8514C368.443 78.9769 368.767 77.0592 369.662 72.8605L370.494 69.0143L371.352 65.168C370.937 66.4155 370.57 67.676 370.196 68.9365Z" fill="#07085B"/>
<path d="M402.115 62.2169C402.686 63.7087 403.205 65.207 403.667 66.7182C404.121 68.2316 404.523 69.7559 404.792 71.2996C405.044 72.6119 405.22 74.3437 405.161 75.9609C405.103 77.5197 402.794 84.849 402.115 86.2998C403.073 85.0133 405.587 77.6213 405.756 76.0085C405.95 74.3891 405.816 72.7546 405.544 71.1655C405.239 69.5635 404.835 68.0716 404.229 66.5236C403.655 65.0275 402.971 63.5703 402.115 62.2169Z" fill="#07085B"/>
<path d="M380.712 28.5497C380.712 28.5497 395.661 24.9434 402.803 14.7818C402.803 14.7818 402.926 5.53048 389.205 7.62765C375.868 9.66861 372.746 22.6473 380.712 28.5497Z" fill="#FF775B"/>
<path d="M528.944 357.942H63.2543C61.8773 357.942 60.762 356.826 60.762 355.449V354.303C60.762 352.926 61.8773 351.811 63.2543 351.811H528.942C530.319 351.811 531.434 352.926 531.434 354.303V355.449C531.434 356.826 530.319 357.942 528.944 357.942Z" fill="#77C1DA"/>
<path d="M57.9086 149.868L147.813 98.4352L159.963 122.51L67.9707 171.188L57.9086 149.868Z" fill="#F0F6FF"/>
</svg>
