<svg width="150" height="34" viewBox="0 0 150 34" fill="none" xmlns="http://www.w3.org/2000/svg">
<path d="M41.1556 21.7035C41.1556 21.4205 41.1839 21.1234 41.2407 20.8121C41.2975 20.4726 41.3259 20.1613 41.3259 19.8783C41.3259 19.2841 41.2123 18.0391 40.9852 16.1432C40.7864 14.2474 40.687 11.8846 40.687 9.05499C40.687 8.60225 40.687 8.10707 40.687 7.56944C40.7154 7.00351 40.7722 6.46588 40.8574 5.95654C40.9426 5.41891 41.0562 4.92373 41.1981 4.47099C41.3401 4.01825 41.5389 3.65039 41.7945 3.36743C42.8735 2.34876 43.9952 1.54231 45.1594 0.948093C46.3521 0.325573 47.6015 0.0143127 48.9078 0.0143127C49.5609 0.0143127 50.1998 0.127498 50.8245 0.35387C51.4776 0.551943 52.0598 0.877351 52.5709 1.33009C53.082 1.78283 53.4938 2.34876 53.8061 3.02787C54.1185 3.70699 54.2747 4.52758 54.2747 5.48965C54.2747 6.6781 54.0049 7.64018 53.4654 8.37588C52.9542 9.11159 52.3721 9.67751 51.719 10.0737C52.7697 10.4415 53.6074 10.965 54.2321 11.6441C54.8852 12.2949 55.3821 13.0731 55.7229 13.9786C56.0636 14.8557 56.2766 15.832 56.3618 16.9072C56.4754 17.9825 56.5322 19.1285 56.5322 20.3452C56.5322 20.9112 56.5038 21.4771 56.447 22.043C56.4186 22.5806 56.3476 23.0617 56.234 23.4861C56.1204 23.9106 55.9501 24.2501 55.7229 24.5048C55.5241 24.7595 55.2543 24.8868 54.9136 24.8868C54.3741 24.8868 54.0191 24.6463 53.8487 24.1652C53.7067 23.7125 53.6358 23.1607 53.6358 22.5099V22.043C53.6358 21.562 53.6358 21.0809 53.6358 20.5999C53.6642 20.0906 53.6783 19.5954 53.6783 19.1143C53.6783 18.5484 53.6642 17.9966 53.6358 17.459C53.6074 16.8931 53.5364 16.3272 53.4228 15.7612C53.1672 15.2519 52.7981 14.8133 52.3153 14.4454C51.861 14.0776 51.3356 13.7805 50.7393 13.5541C50.1714 13.3277 49.5751 13.1721 48.9504 13.0872C48.3256 12.974 47.7435 12.9174 47.204 12.9174C47.062 12.9174 46.849 12.9457 46.5651 13.0023C46.2811 13.0589 45.9687 13.1438 45.628 13.257C45.2872 13.3419 44.9323 13.4409 44.5631 13.5541C44.2224 13.6673 43.9242 13.7805 43.6686 13.8937C43.6686 14.4596 43.697 15.1104 43.7538 15.8461C43.8106 16.5818 43.8674 17.3317 43.9242 18.0957C44.0094 18.8314 44.0946 19.5529 44.1798 20.2603C44.265 20.9395 44.3643 21.5195 44.4779 22.0006C44.4779 22.6231 44.2792 23.1183 43.8816 23.4861C43.5125 23.8257 43.0865 23.9955 42.6038 23.9955C42.2062 23.9955 41.8655 23.7549 41.5815 23.2739C41.2975 22.7929 41.1556 22.2694 41.1556 21.7035ZM43.4557 9.77655C44.1656 9.63507 44.9891 9.437 45.9261 9.18233C46.8916 8.89936 47.7861 8.5881 48.6096 8.24855C49.4331 7.8807 50.1288 7.4987 50.6967 7.10255C51.2931 6.7064 51.5912 6.31025 51.5912 5.9141C51.5912 4.98032 51.2789 4.3578 50.6541 4.04654C50.0578 3.70699 49.4189 3.53721 48.7374 3.53721C48.2262 3.53721 47.6583 3.60795 47.0336 3.74943C46.4373 3.89091 45.8693 4.10313 45.3298 4.3861C44.7903 4.64077 44.3217 4.96617 43.9242 5.36232C43.555 5.73017 43.3705 6.14047 43.3705 6.59321C43.3705 6.81958 43.3563 7.03181 43.3279 7.22988C43.3279 7.42795 43.3279 7.62603 43.3279 7.8241C43.3279 8.53151 43.3705 9.18233 43.4557 9.77655Z" fill="white"/>
<path d="M61.6565 17.459C61.8837 18.1947 62.267 18.7748 62.8066 19.1992C63.3461 19.6237 63.9424 19.9349 64.5955 20.133C65.2486 20.3311 65.9018 20.4584 66.5549 20.515C67.208 20.5433 67.7759 20.5575 68.2587 20.5575C68.7414 20.5575 69.2241 20.4867 69.7069 20.3452C70.1896 20.2038 70.644 20.0481 71.0699 19.8783C71.5242 19.7086 71.936 19.5529 72.3051 19.4115C72.7027 19.27 73.0293 19.1992 73.2848 19.1992C74.2503 19.1992 74.733 19.8218 74.733 21.0668C74.733 21.8025 74.3923 22.3684 73.7108 22.7646C73.0576 23.1607 72.2767 23.4578 71.3681 23.6559C70.4878 23.854 69.6075 23.9672 68.7272 23.9955C67.8753 24.0521 67.2506 24.0804 66.853 24.0804C65.8876 24.0804 64.9363 23.8681 63.9992 23.4437C63.0621 23.0192 62.2244 22.425 61.4861 21.661C60.7762 20.897 60.1941 20.0057 59.7398 18.987C59.3138 17.9683 59.1008 16.8648 59.1008 15.6763C59.1008 14.0351 59.2996 12.5354 59.6972 11.1772C60.1231 9.819 60.7194 8.6447 61.4861 7.65433C62.2528 6.66395 63.2041 5.89995 64.34 5.36232C65.4758 4.79639 66.7679 4.51343 68.2161 4.51343C68.926 4.51343 69.6643 4.65491 70.431 4.93788C71.1977 5.19254 71.8792 5.58869 72.4755 6.12632C73.1002 6.63566 73.6114 7.28647 74.0089 8.07877C74.4065 8.84277 74.6053 9.73411 74.6053 10.7528C74.6053 11.4036 74.5059 11.9554 74.3071 12.4081C74.1083 12.8609 73.8385 13.1438 73.4978 13.257L61.6565 17.459ZM61.4861 14.5303C62.2812 14.304 63.1757 14.0069 64.1696 13.639C65.1919 13.2429 66.2141 12.8467 67.2364 12.4506C68.2587 12.0261 69.2099 11.63 70.0902 11.2621C70.9989 10.866 71.7372 10.5547 72.3051 10.3283C71.936 9.53603 71.3113 8.98425 70.431 8.67299C69.5791 8.33344 68.6562 8.16366 67.6623 8.16366C67.2648 8.16366 66.7537 8.29099 66.1289 8.54566C65.5042 8.77203 64.8653 9.13988 64.2122 9.64922C63.5875 10.1586 63.0195 10.8235 62.5084 11.6441C61.9973 12.4364 61.6565 13.3985 61.4861 14.5303Z" fill="white"/>
<path d="M80.459 25.0141C80.459 25.7215 80.4732 26.3582 80.5016 26.9241C80.5584 27.4901 80.601 28.0277 80.6294 28.537C80.6862 29.0747 80.7288 29.6123 80.7572 30.1499C80.814 30.7158 80.8424 31.3384 80.8424 32.0175C80.8424 32.5834 80.6578 32.9937 80.2886 33.2484C79.9479 33.5313 79.6071 33.6728 79.2664 33.6728C78.8688 33.6728 78.5564 33.5879 78.3293 33.4181C78.1021 33.2484 77.9317 32.9937 77.8181 32.6541C77.733 32.3146 77.6762 31.8901 77.6478 31.3808C77.6478 30.8715 77.6478 30.2772 77.6478 29.5981C77.6478 29.4001 77.6478 29.1595 77.6478 28.8766C77.6478 28.5936 77.6478 28.1692 77.6478 27.6032C77.6762 27.0656 77.6904 26.3299 77.6904 25.3961C77.6904 24.4906 77.7046 23.3022 77.733 21.8308C77.7613 20.3311 77.7897 18.506 77.8181 16.3555C77.8749 14.1766 77.9317 11.5734 77.9885 8.54566C78.3009 7.83825 78.7126 7.25818 79.2238 6.80543C79.7349 6.3244 80.2744 5.9424 80.8424 5.65943C81.4103 5.37647 81.9924 5.17839 82.5887 5.06521C83.1851 4.92373 83.7246 4.85299 84.2073 4.85299C85.6839 4.85299 86.9902 5.06521 88.126 5.48965C89.2619 5.8858 90.2132 6.43758 90.9799 7.14499C91.7466 7.8524 92.3287 8.68714 92.7262 9.64922C93.1238 10.6113 93.3226 11.6441 93.3226 12.7477C93.3226 14.4454 93.1096 15.9876 92.6836 17.3741C92.2577 18.7323 91.6472 19.9066 90.8521 20.897C90.057 21.8591 89.0915 22.6089 87.9556 23.1466C86.8482 23.6559 85.5987 23.9106 84.2073 23.9106C83.469 23.9106 82.8301 23.854 82.2906 23.7408C81.751 23.6559 81.1405 23.5427 80.459 23.4012V25.0141ZM80.5442 19.9208C80.5442 19.9774 80.6436 20.034 80.8424 20.0906C81.0411 20.1189 81.2683 20.1472 81.5239 20.1755C81.8078 20.2038 82.0918 20.2179 82.3758 20.2179C82.6597 20.2179 82.8727 20.2179 83.0147 20.2179C83.9802 20.2179 84.9172 20.0906 85.8259 19.8359C86.7346 19.5529 87.5439 19.1285 88.2538 18.5626C88.9637 17.9966 89.5174 17.2892 89.915 16.4403C90.3409 15.5632 90.5539 14.5303 90.5539 13.3419C90.5539 11.729 89.9718 10.5264 88.8075 9.73411C87.6717 8.91351 86.1241 8.50322 84.1647 8.50322C83.8524 8.50322 83.4832 8.54566 83.0573 8.63055C82.6597 8.71544 82.2622 8.82862 81.8646 8.97011C81.4955 9.11159 81.1689 9.29551 80.885 9.52188C80.6294 9.71996 80.5016 9.96048 80.5016 10.2434L80.3738 15.2094C80.3454 15.4358 80.3454 15.8037 80.3738 16.313C80.4022 16.8223 80.4306 17.3458 80.459 17.8835C80.4874 18.506 80.5158 19.1851 80.5442 19.9208Z" fill="white"/>
<path d="M95.2367 16.3979C95.2367 15.0114 95.478 13.639 95.9608 12.2808C96.4435 10.8943 97.1108 9.66337 97.9627 8.5881C98.8146 7.48455 99.7943 6.60736 100.902 5.95654C102.038 5.27743 103.244 4.93788 104.522 4.93788C105.488 4.93788 106.396 5.16425 107.248 5.61699C108.129 6.06973 108.881 6.66395 109.506 7.39966C110.131 8.10707 110.627 8.92766 110.997 9.86144C111.366 10.7669 111.55 11.6724 111.55 12.5779C111.55 13.0589 111.522 13.5258 111.465 13.9786C111.408 14.403 111.337 14.8416 111.252 15.2943C111.195 15.7188 111.139 16.1715 111.082 16.6526C111.025 17.1336 110.997 17.6712 110.997 18.2655C110.997 19.0577 111.11 19.6095 111.337 19.9208C111.565 20.232 111.891 20.3877 112.317 20.3877C112.573 20.3877 112.814 20.2462 113.041 19.9632C113.297 19.6803 113.524 19.5105 113.723 19.4539C114.461 19.4539 114.83 19.9915 114.83 21.0668C114.83 21.4063 114.759 21.7459 114.617 22.0855C114.475 22.425 114.276 22.7363 114.021 23.0192C113.765 23.2739 113.467 23.5003 113.126 23.6984C112.786 23.8681 112.416 23.953 112.019 23.953C111.621 23.953 111.224 23.8398 110.826 23.6135C110.457 23.3871 110.116 23.1041 109.804 22.7646C109.492 22.3967 109.236 21.9864 109.037 21.5337C108.839 21.0526 108.739 20.5575 108.739 20.0481C107.887 21.1234 106.922 22.0713 105.843 22.8919C104.792 23.7125 103.628 24.1228 102.35 24.1228C101.526 24.1228 100.689 23.9247 99.8369 23.5286C99.0134 23.1324 98.2609 22.5948 97.5793 21.9157C96.8978 21.2083 96.3299 20.3877 95.8756 19.4539C95.4496 18.4918 95.2367 17.4732 95.2367 16.3979ZM97.8775 16.2706C97.8775 16.8931 98.0195 17.459 98.3035 17.9683C98.6158 18.4777 99.0134 18.9163 99.4961 19.2841C100.007 19.6237 100.561 19.8925 101.157 20.0906C101.782 20.2886 102.393 20.3877 102.989 20.3877C104.238 20.3877 105.232 20.1189 105.97 19.5812C106.709 19.0153 107.291 18.322 107.717 17.5015C108.143 16.6526 108.441 15.7471 108.611 14.785C108.782 13.7946 108.938 12.8609 109.08 11.9837C109.08 11.6724 108.924 11.3328 108.611 10.965C108.327 10.5688 107.972 10.2151 107.546 9.90388C107.121 9.56433 106.652 9.28136 106.141 9.05499C105.658 8.82862 105.218 8.71544 104.82 8.71544C103.77 8.71544 102.818 8.94181 101.967 9.39455C101.115 9.84729 100.376 10.4415 99.7517 11.1772C99.1554 11.8846 98.6868 12.6911 98.3461 13.5966C98.0337 14.502 97.8775 15.3934 97.8775 16.2706Z" fill="white"/>
<path d="M118.355 25.0141C118.355 25.7215 118.369 26.3582 118.397 26.9241C118.454 27.4901 118.497 28.0277 118.525 28.537C118.582 29.0747 118.625 29.6123 118.653 30.1499C118.71 30.7158 118.738 31.3384 118.738 32.0175C118.738 32.5834 118.554 32.9937 118.184 33.2484C117.844 33.5313 117.503 33.6728 117.162 33.6728C116.765 33.6728 116.452 33.5879 116.225 33.4181C115.998 33.2484 115.828 32.9937 115.714 32.6541C115.629 32.3146 115.572 31.8901 115.544 31.3808C115.544 30.8715 115.544 30.2772 115.544 29.5981C115.544 29.4001 115.544 29.1595 115.544 28.8766C115.544 28.5936 115.544 28.1692 115.544 27.6032C115.572 27.0656 115.586 26.3299 115.586 25.3961C115.586 24.4906 115.6 23.3022 115.629 21.8308C115.657 20.3311 115.686 18.506 115.714 16.3555C115.771 14.1766 115.828 11.5734 115.884 8.54566C116.197 7.83825 116.608 7.25818 117.12 6.80543C117.631 6.3244 118.17 5.9424 118.738 5.65943C119.306 5.37647 119.888 5.17839 120.485 5.06521C121.081 4.92373 121.62 4.85299 122.103 4.85299C123.58 4.85299 124.886 5.06521 126.022 5.48965C127.158 5.8858 128.109 6.43758 128.876 7.14499C129.642 7.8524 130.225 8.68714 130.622 9.64922C131.02 10.6113 131.218 11.6441 131.218 12.7477C131.218 14.4454 131.005 15.9876 130.579 17.3741C130.154 18.7323 129.543 19.9066 128.748 20.897C127.953 21.8591 126.987 22.6089 125.851 23.1466C124.744 23.6559 123.495 23.9106 122.103 23.9106C121.365 23.9106 120.726 23.854 120.186 23.7408C119.647 23.6559 119.036 23.5427 118.355 23.4012V25.0141ZM118.44 19.9208C118.44 19.9774 118.539 20.034 118.738 20.0906C118.937 20.1189 119.164 20.1472 119.42 20.1755C119.704 20.2038 119.988 20.2179 120.272 20.2179C120.556 20.2179 120.769 20.2179 120.911 20.2179C121.876 20.2179 122.813 20.0906 123.722 19.8359C124.63 19.5529 125.44 19.1285 126.15 18.5626C126.86 17.9966 127.413 17.2892 127.811 16.4403C128.237 15.5632 128.45 14.5303 128.45 13.3419C128.45 11.729 127.868 10.5264 126.703 9.73411C125.568 8.91351 124.02 8.50322 122.061 8.50322C121.748 8.50322 121.379 8.54566 120.953 8.63055C120.556 8.71544 120.158 8.82862 119.76 8.97011C119.391 9.11159 119.065 9.29551 118.781 9.52188C118.525 9.71996 118.397 9.96048 118.397 10.2434L118.27 15.2094C118.241 15.4358 118.241 15.8037 118.27 16.313C118.298 16.8223 118.326 17.3458 118.355 17.8835C118.383 18.506 118.412 19.1851 118.44 19.9208Z" fill="white"/>
<path d="M137.136 25.0141C137.136 25.7215 137.151 26.3582 137.179 26.9241C137.236 27.4901 137.278 28.0277 137.307 28.537C137.364 29.0747 137.406 29.6123 137.435 30.1499C137.491 30.7158 137.52 31.3384 137.52 32.0175C137.52 32.5834 137.335 32.9937 136.966 33.2484C136.625 33.5313 136.284 33.6728 135.944 33.6728C135.546 33.6728 135.234 33.5879 135.007 33.4181C134.779 33.2484 134.609 32.9937 134.496 32.6541C134.41 32.3146 134.354 31.8901 134.325 31.3808C134.325 30.8715 134.325 30.2772 134.325 29.5981C134.325 29.4001 134.325 29.1595 134.325 28.8766C134.325 28.5936 134.325 28.1692 134.325 27.6032C134.354 27.0656 134.368 26.3299 134.368 25.3961C134.368 24.4906 134.382 23.3022 134.41 21.8308C134.439 20.3311 134.467 18.506 134.496 16.3555C134.552 14.1766 134.609 11.5734 134.666 8.54566C134.978 7.83825 135.39 7.25818 135.901 6.80543C136.412 6.3244 136.952 5.9424 137.52 5.65943C138.088 5.37647 138.67 5.17839 139.266 5.06521C139.862 4.92373 140.402 4.85299 140.885 4.85299C142.361 4.85299 143.668 5.06521 144.803 5.48965C145.939 5.8858 146.891 6.43758 147.657 7.14499C148.424 7.8524 149.006 8.68714 149.404 9.64922C149.801 10.6113 150 11.6441 150 12.7477C150 14.4454 149.787 15.9876 149.361 17.3741C148.935 18.7323 148.325 19.9066 147.529 20.897C146.734 21.8591 145.769 22.6089 144.633 23.1466C143.526 23.6559 142.276 23.9106 140.885 23.9106C140.146 23.9106 139.507 23.854 138.968 23.7408C138.428 23.6559 137.818 23.5427 137.136 23.4012V25.0141ZM137.222 19.9208C137.222 19.9774 137.321 20.034 137.52 20.0906C137.719 20.1189 137.946 20.1472 138.201 20.1755C138.485 20.2038 138.769 20.2179 139.053 20.2179C139.337 20.2179 139.55 20.2179 139.692 20.2179C140.658 20.2179 141.595 20.0906 142.503 19.8359C143.412 19.5529 144.221 19.1285 144.931 18.5626C145.641 17.9966 146.195 17.2892 146.592 16.4403C147.018 15.5632 147.231 14.5303 147.231 13.3419C147.231 11.729 146.649 10.5264 145.485 9.73411C144.349 8.91351 142.801 8.50322 140.842 8.50322C140.53 8.50322 140.161 8.54566 139.735 8.63055C139.337 8.71544 138.94 8.82862 138.542 8.97011C138.173 9.11159 137.846 9.29551 137.562 9.52188C137.307 9.71996 137.179 9.96048 137.179 10.2434L137.051 15.2094C137.023 15.4358 137.023 15.8037 137.051 16.313C137.08 16.8223 137.108 17.3458 137.136 17.8835C137.165 18.506 137.193 19.1851 137.222 19.9208Z" fill="white"/>
<path fill-rule="evenodd" clip-rule="evenodd" d="M25.6626 1.30435C25.6626 0.583976 25.0756 0 24.3514 0H5.28719C4.56299 0 3.9759 0.583976 3.9759 1.30435V28.6957C3.9759 29.416 4.56299 30 5.28719 30H24.3514C25.0756 30 25.6626 29.416 25.6626 28.6957V1.30435ZM3.27823 1.6568C3.27823 1.46727 3.11593 1.31507 2.92765 1.34424C1.2604 1.60253 0 2.79506 0 4.22717C0 5.65927 1.26039 6.8518 2.92765 7.1101C3.11593 7.13926 3.27823 6.98707 3.27823 6.79753C3.27823 6.62796 3.1471 6.48709 2.97892 6.45939C1.57008 6.22728 0.655646 5.22959 0.655646 4.22717C0.655646 3.22474 1.57008 2.22706 2.97892 1.99495C3.1471 1.96724 3.27823 1.82637 3.27823 1.6568ZM26.7223 1.60066C26.5038 1.47026 26.2258 1.62681 26.2258 1.88028V6.59798C26.2258 6.85145 26.5038 7.00801 26.7223 6.8776L28.0336 6.09499C28.1323 6.03606 28.1928 5.92991 28.1928 5.81537V2.66289C28.1928 2.54835 28.1323 2.4422 28.0336 2.38327L26.7223 1.60066ZM26.7223 15.9485C26.5038 15.8181 26.2258 15.9746 26.2258 16.2281V20.9458C26.2258 21.1993 26.5038 21.3558 26.7223 21.2254L28.0336 20.4428C28.1323 20.3839 28.1928 20.2777 28.1928 20.1632V17.0107C28.1928 16.8962 28.1323 16.79 28.0336 16.7311L26.7223 15.9485ZM26.2258 9.05419C26.2258 8.80073 26.5038 8.64417 26.7223 8.77458L28.0336 9.55718C28.1323 9.61612 28.1928 9.72226 28.1928 9.8368V12.9893C28.1928 13.1038 28.1323 13.21 28.0336 13.2689L26.7223 14.0515C26.5038 14.1819 26.2258 14.0254 26.2258 13.7719V9.05419ZM26.7223 23.1224C26.5038 22.992 26.2258 23.1486 26.2258 23.402V28.1197C26.2258 28.3732 26.5038 28.5297 26.7223 28.3993L28.0336 27.6167C28.1323 27.5578 28.1928 27.4517 28.1928 27.3371V24.1846C28.1928 24.0701 28.1323 23.9639 28.0336 23.905L26.7223 23.1224ZM2.92765 15.6921C3.11593 15.6629 3.27823 15.8151 3.27823 16.0046C3.27823 16.1742 3.1471 16.3151 2.97892 16.3428C1.57008 16.5749 0.655646 17.5726 0.655646 18.575C0.655646 19.5774 1.57008 20.5751 2.97892 20.8072C3.1471 20.8349 3.27823 20.9758 3.27823 21.1454C3.27823 21.3349 3.11593 21.4871 2.92765 21.4579C1.26039 21.1996 0 20.0071 0 18.575C0 17.1429 1.2604 15.9504 2.92765 15.6921ZM3.27823 8.83072C3.27823 8.64118 3.11593 8.48898 2.92765 8.51815C1.2604 8.77645 0 9.96897 0 11.4011C0 12.8332 1.26039 14.0257 2.92765 14.284C3.11593 14.3132 3.27823 14.161 3.27823 13.9714C3.27823 13.8019 3.1471 13.661 2.97892 13.6333C1.57008 13.4012 0.655646 12.4035 0.655646 11.4011C0.655646 10.3987 1.57008 9.40097 2.97892 9.16886C3.1471 9.14115 3.27823 9.00029 3.27823 8.83072ZM2.92765 22.866C3.11593 22.8368 3.27823 22.989 3.27823 23.1785C3.27823 23.3481 3.1471 23.489 2.97892 23.5167C1.57008 23.7488 0.655646 24.7465 0.655646 25.7489C0.655646 26.7513 1.57008 27.749 2.97892 27.9811C3.1471 28.0088 3.27823 28.1497 3.27823 28.3193C3.27823 28.5088 3.11593 28.661 2.92765 28.6318C1.26039 28.3735 0 27.181 0 25.7489C0 24.3168 1.2604 23.1243 2.92765 22.866ZM6.86751 25.1325C6.86751 24.028 7.76294 23.1325 8.86751 23.1325H17.8796C18.9841 23.1325 19.8796 24.028 19.8796 25.1325V25.8313C19.8796 26.9359 18.9841 27.8313 17.8796 27.8313H8.86751C7.76294 27.8313 6.86751 26.9359 6.86751 25.8313V25.1325ZM8.13257 19.1566C7.4339 19.1566 6.86751 19.723 6.86751 20.4217C6.86751 21.1204 7.4339 21.6867 8.13257 21.6867H21.5061C22.2047 21.6867 22.7711 21.1204 22.7711 20.4217C22.7711 19.723 22.2047 19.1566 21.5061 19.1566H8.13257ZM6.86751 3.43374C6.86751 2.73506 7.4339 2.16868 8.13257 2.16868H21.5061C22.2047 2.16868 22.7711 2.73506 22.7711 3.43374C22.7711 4.13241 22.2047 4.6988 21.5061 4.6988H8.13257C7.4339 4.6988 6.86751 4.13241 6.86751 3.43374ZM8.13257 6.14458C7.4339 6.14458 6.86751 6.71096 6.86751 7.40964C6.86751 8.10831 7.4339 8.6747 8.13258 8.6747H17.1687C17.8674 8.6747 18.4338 8.10831 18.4338 7.40964C18.4338 6.71096 17.8674 6.14458 17.1687 6.14458H8.13257ZM6.86751 12.1205C6.86751 11.0159 7.76294 10.1205 8.86751 10.1205H12.0964C13.201 10.1205 14.0964 11.0159 14.0964 12.1205V15.7108C14.0964 16.8154 13.201 17.7108 12.0964 17.7108H8.86751C7.76295 17.7108 6.86751 16.8154 6.86751 15.7108V12.1205ZM17.5422 10.1205C16.4377 10.1205 15.5422 11.0159 15.5422 12.1205V15.7108C15.5422 16.8154 16.4377 17.7108 17.5422 17.7108H20.7712C21.8757 17.7108 22.7712 16.8154 22.7712 15.7108V12.1205C22.7712 11.0159 21.8757 10.1205 20.7712 10.1205H17.5422Z" fill="white"/>
</svg>
