<svg width="73" height="73" viewBox="0 0 73 73" fill="none" xmlns="http://www.w3.org/2000/svg">
<path d="M36.499 0C56.6577 0 72.9979 16.3423 72.9979 36.499C72.9979 56.6577 56.6579 73 36.499 73C16.3423 73 0 56.6577 0 36.499C0 16.3423 16.3423 0 36.499 0Z" fill="#FDEBD1"/>
<path d="M30.3169 30.2575C28.1772 31.7517 25.4328 32.3606 22.7115 31.6354C17.8253 30.3307 14.9258 25.3257 16.2352 20.4577C16.5157 19.4197 16.9925 18.4958 17.5719 17.6609C15.8679 18.847 14.5358 20.5807 13.9563 22.7387C12.6469 27.6066 15.5462 32.6117 20.4327 33.9164C24.2787 34.9409 28.1796 33.3463 30.3169 30.2575ZM59.3108 27.3764C53.0102 27.3764 47.905 22.2689 47.905 15.9706C47.905 13.4042 48.7833 11.0615 50.216 9.15433C47.4421 11.2348 45.6241 14.5197 45.6241 18.2516C45.6241 24.5522 50.7292 29.6574 57.0299 29.6574C60.7641 29.6574 64.0445 27.8394 66.125 25.0676C64.2221 26.4982 61.877 27.3764 59.3108 27.3764ZM26.1856 54.6092C23.754 53.9567 22.3098 51.4566 22.96 49.0202L23.2154 48.3451C22.0132 48.8881 21.046 49.9258 20.6787 51.3014C20.0286 53.7378 21.4725 56.238 23.9044 56.8904C26.0988 57.4791 28.3368 56.3545 29.2356 54.3423C28.3094 54.762 27.2466 54.8944 26.1856 54.6092ZM48.4045 52.2253C44.7523 51.2444 42.5853 47.4942 43.566 43.8397C43.7417 43.1781 44.036 42.5874 44.378 42.0329C42.9067 42.9159 41.7616 44.3368 41.2848 46.1209C40.3038 49.7754 42.4732 53.5256 46.1233 54.5065C49.1117 55.3073 52.1434 53.9797 53.6877 51.4748C52.1546 52.3942 50.2704 52.7227 48.4045 52.2253Z" fill="transparent"/>
<path d="M41.0614 68.4376C20.9048 68.4376 4.56243 52.0952 4.56243 31.9365C4.56243 23.0194 7.76985 14.8572 13.0804 8.51801C5.08953 15.2131 0 25.2571 0 36.499C0 56.6577 16.3423 73 36.499 73C47.7406 73 57.7822 67.9131 64.4799 59.9219C58.1404 65.2325 49.9808 68.4376 41.0614 68.4376Z" fill="#FDEBD1"/>
<path d="M68.3851 18.7581C65.7731 14.077 62.1551 10.0485 57.8325 6.92551L57.0296 6.8434C50.729 6.8434 45.6238 11.9509 45.6238 18.2492C45.6238 24.5499 50.729 29.6551 57.0296 29.6551C63.1569 29.6577 68.1138 24.8171 68.3851 18.7581Z" fill="#EFDDC1"/>
<path d="M47.8938 54.7391C51.6746 54.7391 54.7396 51.6741 54.7396 47.8933C54.7396 44.1125 51.6746 41.0476 47.8938 41.0476C44.113 41.0476 41.0481 44.1125 41.0481 47.8933C41.0481 51.6741 44.113 54.7391 47.8938 54.7391Z" fill="#EFDDC1"/>
<path d="M25.1752 16.2853C20.2867 14.9805 15.2657 17.8684 13.9563 22.7387C12.6469 27.6066 15.5462 32.6117 20.4327 33.9164C25.3212 35.219 30.3443 32.3309 31.6537 27.463C32.9631 22.595 30.0614 17.5902 25.1752 16.2853Z" fill="#EFDDC1"/>
<path d="M25.0864 57.0456C27.6061 57.0456 29.6488 55.0029 29.6488 52.4831C29.6488 49.9634 27.6061 47.9207 25.0864 47.9207C22.5666 47.9207 20.5239 49.9634 20.5239 52.4831C20.5239 55.0029 22.5666 57.0456 25.0864 57.0456Z" fill="#EFDDC1"/>
</svg>
