<svg width="73" height="73" viewBox="0 0 73 73" fill="none" xmlns="http://www.w3.org/2000/svg">
<path d="M66.1449 42.3023L73 36.435L66.1449 30.5677C65.6501 30.1449 65.4914 29.447 65.7535 28.8507L69.3888 20.5943L60.6653 18.2958C60.0339 18.1296 59.5871 17.5702 59.565 16.9185L59.2585 7.89966L50.3966 9.60004C49.7578 9.72189 49.1135 9.41172 48.8107 8.83385L44.6216 0.845207L37.3807 6.23436C36.8582 6.62391 36.1418 6.62391 35.6175 6.23436L28.3784 0.845207L24.1893 8.83385C23.8865 9.41172 23.2422 9.72189 22.6034 9.60004L13.7415 7.89966L13.435 16.9185C13.4129 17.5702 12.9661 18.1296 12.3347 18.2958L3.61123 20.5943L7.24646 28.8507C7.50862 29.447 7.34985 30.1449 6.85506 30.5677L0 36.435L6.85506 42.3023C7.34985 42.7251 7.50862 43.423 7.24646 44.0193L3.61123 52.2757L12.3347 54.5742C12.9661 54.7404 13.4129 55.2998 13.435 55.9515L13.7415 64.9704L22.6034 63.27C22.6957 63.2534 22.7899 63.2441 22.8822 63.2441C23.4231 63.2441 23.9309 63.5432 24.1893 64.0362L28.3784 72.0248L35.6175 66.6357C36.1418 66.2461 36.8582 66.2461 37.3807 66.6357L44.6216 72.0248L48.8107 64.0362C49.1135 63.4583 49.7578 63.1481 50.3966 63.27L59.2585 64.9704L59.565 55.9515C59.5871 55.2998 60.0339 54.7404 60.6653 54.5742L69.3888 52.2757L65.7535 44.0193C65.4914 43.423 65.6501 42.7251 66.1449 42.3023ZM36.5 63.7592C21.4329 63.7592 9.17577 51.5021 9.17577 36.435C9.17577 21.3679 21.4329 9.11079 36.5 9.11079C51.5671 9.11079 63.8242 21.3679 63.8242 36.435C63.8242 51.5021 51.5671 63.7592 36.5 63.7592Z" fill="#FFBE18"/>
<path d="M36.4999 12.0648C23.0612 12.0648 12.1296 22.9963 12.1296 36.435C12.1296 49.8737 23.0612 60.8053 36.4999 60.8053C49.9368 60.8053 60.8702 49.8737 60.8702 36.435C60.8702 22.9963 49.9368 12.0648 36.4999 12.0648Z" fill="#FFE818"/>
</svg>
